# Blender 3.3.1
# www.blender.org
mtllib carrot_001.mtl
o carrot_001
v -0.005494 0.010274 -0.043619
v -0.001473 0.017240 -0.043619
v -0.004395 0.008185 -0.070816
v -0.001178 0.013567 -0.072258
v 0.001177 0.005077 -0.069984
v 0.004394 0.010459 -0.071425
v 0.001472 0.006252 -0.043619
v 0.005494 0.013218 -0.043619
v -0.002844 0.002494 -0.094839
v -0.000762 0.005976 -0.095772
v 0.002843 0.003966 -0.095233
v 0.000761 0.000484 -0.094300
v 0.006743 0.000066 0.084621
v -0.006744 0.000066 0.084621
v -0.013487 0.011746 0.084621
v -0.006744 0.023425 0.084621
v 0.006743 0.023425 0.084621
v 0.013486 0.011746 0.084621
v 0.008380 -0.002770 -0.041977
v -0.008381 -0.002770 -0.041977
v -0.016762 0.011746 -0.041977
v -0.008381 0.026262 -0.041977
v 0.008380 0.026262 -0.041977
v 0.016761 0.011746 -0.041977
v 0.008901 -0.003672 -0.011954
v -0.008902 -0.003672 -0.011954
v -0.017803 0.011746 -0.011954
v -0.008902 0.027163 -0.011954
v 0.008901 0.027163 -0.011954
v 0.017802 0.011746 -0.011954
v -0.000000 0.011746 -0.053275
v 0.003708 0.005322 0.100482
v -0.003709 0.005322 0.100482
v -0.007418 0.011746 0.100482
v -0.003709 0.018170 0.100482
v 0.003708 0.018170 0.100482
v 0.007417 0.011746 0.100482
v -0.000000 0.011746 0.105317
vn -0.8641 0.4980 -0.0730
vn -0.0000 -0.2587 -0.9659
vn 0.8633 -0.5044 0.0144
vn 0.4968 0.8615 -0.1052
vn -0.4961 -0.8671 0.0454
vn -0.8653 0.4723 -0.1677
vn 0.4997 0.8269 -0.2581
vn 0.8648 -0.4958 0.0789
vn -0.4992 -0.8498 0.1691
vn -0.0000 -0.9995 -0.0300
vn -0.8656 -0.4998 -0.0300
vn -0.8656 0.4998 -0.0300
vn -0.0000 0.9995 -0.0300
vn 0.8656 0.4998 -0.0300
vn 0.8656 -0.4998 -0.0300
vn -0.0000 -0.9993 0.0387
vn -0.8654 -0.4996 0.0387
vn -0.8654 0.4996 0.0387
vn -0.0000 0.9993 0.0387
vn 0.8654 0.4996 0.0387
vn 0.8654 -0.4996 0.0387
vn -0.0000 -0.6142 -0.7892
vn -0.5319 -0.3071 -0.7892
vn -0.5319 0.3071 -0.7892
vn -0.0000 0.6142 -0.7892
vn 0.5319 0.3071 -0.7892
vn 0.5319 -0.3071 -0.7892
vn 0.8221 0.4746 0.3145
vn -0.0000 0.9492 0.3145
vn -0.8221 0.4746 0.3145
vn -0.8221 -0.4746 0.3145
vn -0.0000 -0.9492 0.3145
vn 0.8221 -0.4746 0.3145
vn 0.5208 0.3007 0.7990
vn -0.0000 0.6014 0.7990
vn -0.5208 0.3007 0.7990
vn -0.5208 -0.3007 0.7990
vn -0.0000 -0.6014 0.7990
vn 0.5208 -0.3007 0.7990
vt 0.483514 0.474558
vt 0.483248 0.474558
vt 0.483514 0.474293
vt 0.483248 0.474293
vt 0.483779 0.474293
vt 0.483514 0.474027
vt 0.482982 0.474293
vt 0.483248 0.474027
vt 0.483514 0.473762
vt 0.483779 0.474558
vt 0.483248 0.473762
vt 0.482982 0.474558
vt 0.483514 0.474293
vt 0.483248 0.474293
vt 0.483248 0.474027
vt 0.483514 0.474027
vt 0.710600 0.385289
vt 0.709178 0.385289
vt 0.709445 0.386947
vt 0.710363 0.385289
vt 0.710333 0.386947
vt 0.710126 0.385289
vt 0.710778 0.386178
vt 0.709889 0.385289
vt 0.710333 0.385408
vt 0.709652 0.385289
vt 0.709445 0.385408
vt 0.709415 0.385289
vt 0.709001 0.386178
vt 0.710600 0.383151
vt 0.709178 0.383151
vt 0.709445 0.381498
vt 0.710363 0.383151
vt 0.710333 0.381498
vt 0.710126 0.383151
vt 0.710778 0.382268
vt 0.709889 0.383151
vt 0.710333 0.383037
vt 0.709652 0.383151
vt 0.709445 0.383037
vt 0.709415 0.383151
vt 0.709001 0.382268
vt 0.710600 0.384220
vt 0.709178 0.384220
vt 0.710363 0.384220
vt 0.710126 0.384220
vt 0.709889 0.384220
vt 0.709652 0.384220
vt 0.709415 0.384220
vt 0.709889 0.382273
vt 0.709667 0.386565
vt 0.710111 0.386565
vt 0.710333 0.386180
vt 0.710111 0.385795
vt 0.709667 0.385795
vt 0.709445 0.386180
vt 0.709889 0.386180
s 1
usemtl Material
f 1/1/1 2/2/1 4/4/1 3/3/1
f 9/13/2 10/14/2 11/15/2 12/16/2
f 5/6/3 6/8/3 8/11/3 7/9/3
f 2/2/4 8/12/4 6/7/4 4/4/4
f 7/10/5 1/1/5 3/3/5 5/5/5
f 3/3/6 4/4/6 10/14/6 9/13/6
f 4/4/7 6/8/7 11/15/7 10/14/7
f 6/8/8 5/6/8 12/16/8 11/15/8
f 5/6/9 3/3/9 9/13/9 12/16/9
f 25/43/10 26/45/10 20/33/10 19/30/10
f 26/45/11 27/46/11 21/35/11 20/33/11
f 27/46/12 28/47/12 22/37/12 21/35/12
f 28/47/13 29/48/13 23/39/13 22/37/13
f 29/48/14 30/49/14 24/41/14 23/39/14
f 30/49/15 25/44/15 19/31/15 24/41/15
f 13/17/16 14/20/16 26/45/16 25/43/16
f 14/20/17 15/22/17 27/46/17 26/45/17
f 15/22/18 16/24/18 28/47/18 27/46/18
f 16/24/19 17/26/19 29/48/19 28/47/19
f 17/26/20 18/28/20 30/49/20 29/48/20
f 18/28/21 13/18/21 25/44/21 30/49/21
f 19/32/22 20/34/22 31/50/22
f 20/34/23 21/36/23 31/50/23
f 21/36/24 22/38/24 31/50/24
f 22/38/25 23/40/25 31/50/25
f 23/40/26 24/42/26 31/50/26
f 24/42/27 19/32/27 31/50/27
f 18/29/28 17/27/28 36/55/28 37/56/28
f 17/27/29 16/25/29 35/54/29 36/55/29
f 16/25/30 15/23/30 34/53/30 35/54/30
f 15/23/31 14/21/31 33/52/31 34/53/31
f 14/21/32 13/19/32 32/51/32 33/52/32
f 13/19/33 18/29/33 37/56/33 32/51/33
f 37/56/34 36/55/34 38/57/34
f 36/55/35 35/54/35 38/57/35
f 35/54/36 34/53/36 38/57/36
f 34/53/37 33/52/37 38/57/37
f 33/52/38 32/51/38 38/57/38
f 32/51/39 37/56/39 38/57/39
