# Blender 3.3.1
# www.blender.org
mtllib chips_001.mtl
o chips_001
v 0.025747 0.000065 -0.039653
v -0.001075 0.000065 -0.050763
v -0.027897 0.000065 -0.039653
v -0.039007 0.000065 -0.012831
v -0.027897 0.000065 0.013991
v -0.001075 0.000065 0.025101
v 0.025747 0.000065 0.013991
v 0.036858 0.000065 -0.012831
v 0.025747 0.196140 -0.039653
v -0.001075 0.196140 -0.050763
v -0.027897 0.196140 -0.039653
v -0.039007 0.196140 -0.012831
v -0.027897 0.196140 0.013991
v -0.001075 0.196140 0.025101
v 0.025747 0.196140 0.013991
v 0.036858 0.196140 -0.012831
v -0.027897 0.156355 0.013991
v -0.001075 0.177944 0.025101
v 0.025747 0.156355 0.013991
v -0.001075 0.135961 0.025101
v -0.019168 0.170918 0.017607
v 0.016340 0.170372 0.017887
v 0.017089 0.142544 0.017578
v -0.019161 0.142603 0.017609
v 0.025747 0.228039 -0.039653
v -0.001075 0.228039 -0.050763
v -0.027897 0.228039 -0.039653
v -0.039007 0.228039 -0.012831
v -0.027897 0.228039 0.013991
v -0.001075 0.228039 0.025101
v 0.025747 0.228039 0.013991
v 0.036858 0.228039 -0.012831
v 0.027532 0.226885 -0.041439
v -0.001075 0.226885 -0.053288
v -0.029682 0.226885 -0.041439
v -0.041532 0.226885 -0.012831
v -0.029682 0.226885 0.015776
v -0.001075 0.226885 0.027626
v 0.027532 0.226885 0.015776
v 0.039382 0.226885 -0.012831
v 0.027532 0.231651 -0.041439
v -0.001075 0.231651 -0.053288
v -0.029682 0.231651 -0.041439
v -0.041532 0.231651 -0.012831
v -0.029682 0.231651 0.015776
v -0.001075 0.231651 0.027626
v 0.027532 0.231651 0.015776
v 0.039382 0.231651 -0.012831
v -0.032236 0.117877 0.003516
v -0.027897 0.094490 0.013991
v -0.027897 0.122888 0.013991
v -0.001075 0.114406 0.025101
v 0.025747 0.141075 0.013991
v 0.025747 0.123594 0.013991
v 0.033602 0.140377 -0.004971
v 0.032813 0.123543 -0.003068
v -0.013597 0.153477 0.019915
v -0.015982 0.148817 0.018927
v -0.001075 0.145858 0.025101
v -0.001075 0.156967 0.025101
v -0.019175 0.156482 0.017604
v -0.006122 0.143804 0.023010
v 0.005152 0.147736 0.022522
v -0.008063 0.157178 0.022207
v 0.003551 0.153647 0.023185
v 0.008632 0.159025 0.021080
v 0.014978 0.146658 0.018451
v 0.020103 0.160898 0.016329
v 0.016067 0.157045 0.018001
v 0.020021 0.152164 0.016364
vn -0.3827 -0.0000 0.9239
vn 0.3827 -0.0000 0.9239
vn -0.0000 -1.0000 -0.0000
vn -0.9239 -0.0000 0.3827
vn 0.3827 -0.0000 -0.9239
vn -0.3827 -0.0000 -0.9239
vn -0.9239 -0.0000 -0.3827
vn 0.9239 -0.0000 0.3827
vn 0.9239 -0.0000 -0.3827
vn 0.3827 0.0001 0.9239
vn -0.0000 1.0000 -0.0000
vn -0.3826 -0.0000 0.9239
vn 0.3828 -0.0001 0.9238
vn 0.3826 -0.0000 0.9239
vn 0.3826 -0.0001 0.9239
vt 0.867787 0.404603
vt 0.512957 0.426464
vt 0.513316 0.428083
vt 0.869681 0.405387
vt 0.513128 0.426464
vt 0.871576 0.404603
vt 0.513300 0.426464
vt 0.514018 0.428083
vt 0.872361 0.402708
vt 0.513846 0.428083
vt 0.871576 0.400814
vt 0.513675 0.428083
vt 0.514377 0.428083
vt 0.869681 0.400029
vt 0.514206 0.428083
vt 0.867787 0.400814
vt 0.514034 0.428083
vt 0.513659 0.428083
vt 0.867002 0.402708
vt 0.513487 0.428083
vt 0.512957 0.427856
vt 0.513316 0.426691
vt 0.598779 0.497201
vt 0.598926 0.495456
vt 0.513128 0.427856
vt 0.598779 0.496335
vt 0.513300 0.427856
vt 0.514018 0.426691
vt 0.598759 0.495470
vt 0.513846 0.426691
vt 0.598759 0.496335
vt 0.513675 0.426691
vt 0.514377 0.426691
vt 0.598759 0.497201
vt 0.597764 0.493725
vt 0.514206 0.426691
vt 0.597764 0.494590
vt 0.513659 0.426691
vt 0.514034 0.426691
vt 0.597764 0.495456
vt 0.598926 0.493725
vt 0.513487 0.426691
vt 0.598926 0.494590
vt 0.514377 0.426973
vt 0.513675 0.426973
vt 0.866147 0.062761
vt 0.514206 0.426813
vt 0.863166 0.065955
vt 0.513659 0.426973
vt 0.514034 0.426973
vt 0.866147 0.069150
vt 0.582995 0.714619
vt 0.514206 0.427125
vt 0.868963 0.065955
vt 0.514322 0.426865
vt 0.864136 0.063800
vt 0.514094 0.426869
vt 0.864211 0.068029
vt 0.514089 0.427076
vt 0.868054 0.068119
vt 0.514322 0.427076
vt 0.868046 0.063801
vt 0.599921 0.497201
vt 0.597785 0.495456
vt 0.599921 0.496335
vt 0.599921 0.495470
vt 0.597617 0.495470
vt 0.597617 0.496335
vt 0.597617 0.497201
vt 0.596622 0.493725
vt 0.596622 0.494590
vt 0.596622 0.495456
vt 0.597785 0.493725
vt 0.597785 0.494590
vt 0.889401 0.281947
vt 0.889484 0.282123
vt 0.889356 0.281875
vt 0.889514 0.282051
vt 0.889385 0.281803
vt 0.889484 0.281979
vt 0.889411 0.281949
vt 0.889354 0.281803
vt 0.889339 0.281979
vt 0.889354 0.281875
vt 0.889309 0.282051
vt 0.889354 0.281947
vt 0.889401 0.281803
vt 0.889339 0.282123
vt 0.889401 0.281875
vt 0.889411 0.282153
vt 0.889387 0.281947
vt 0.889164 0.281917
vt 0.889369 0.281875
vt 0.889134 0.281845
vt 0.889372 0.281803
vt 0.889164 0.281773
vt 0.889372 0.281875
vt 0.889236 0.281743
vt 0.889372 0.281947
vt 0.889308 0.281773
vt 0.889338 0.281845
vt 0.889387 0.281803
vt 0.889308 0.281917
vt 0.889387 0.281875
vt 0.889236 0.281947
vt 0.583308 0.714559
vt 0.513742 0.427246
vt 0.584013 0.712813
vt 0.579897 0.716426
vt 0.513675 0.427413
vt 0.514377 0.427413
vt 0.584013 0.714934
vt 0.582018 0.716426
vt 0.514377 0.427212
vt 0.513675 0.427211
vt 0.581385 0.714619
vt 0.514206 0.427276
vt 0.513659 0.427084
vt 0.583319 0.712813
vt 0.584386 0.717721
vt 0.514034 0.427090
vt 0.582064 0.712813
vt 0.514034 0.427207
vt 0.513659 0.427206
vt 0.583139 0.717721
vt 0.513538 0.427087
vt 0.584411 0.716444
vt 0.513550 0.427206
vt 0.583154 0.716572
vt 0.765974 0.413781
vt 0.866544 0.064464
vt 0.765776 0.413872
vt 0.867188 0.064180
vt 0.765650 0.413301
vt 0.867597 0.065955
vt 0.766115 0.413301
vt 0.866085 0.065955
vt 0.766102 0.413995
vt 0.866130 0.063800
vt 0.765563 0.413494
vt 0.867880 0.065354
vt 0.867337 0.066697
vt 0.765730 0.413062
vt 0.766131 0.413569
vt 0.866033 0.065123
vt 0.866771 0.066506
vt 0.765904 0.413123
vt 0.865778 0.067111
vt 0.766210 0.412928
vt 0.867486 0.067867
vt 0.765684 0.412685
vt 0.865520 0.068478
vt 0.766290 0.412488
vt 0.866052 0.067997
vt 0.766126 0.412643
vt 0.866726 0.068468
vt 0.765918 0.412491
s 1
usemtl Material
f 13/33/1 18/47/1 14/36/1
f 18/47/2 15/39/2 14/36/2
f 2/4/3 1/1/3 6/14/3
f 3/6/3 2/4/3 6/14/3
f 4/9/3 3/6/3 6/14/3
f 5/11/3 4/9/3 6/14/3
f 8/19/3 7/16/3 6/14/3
f 1/1/3 8/19/3 6/14/3
f 49/106/4 50/108/4 51/112/4
f 50/109/1 52/116/1 20/52/1 51/113/1
f 1/2/5 2/5/5 10/25/5 9/21/5
f 2/5/6 3/7/6 11/27/6 10/25/6
f 3/8/7 4/10/7 12/30/7 11/28/7
f 4/10/4 49/107/4 17/45/4 13/32/4 12/30/4
f 13/33/1 21/55/1 18/47/1
f 22/57/2 19/50/2 15/39/2
f 19/49/8 53/118/8 55/126/8 56/128/8 54/124/8 8/20/8 16/42/8 15/38/8
f 8/20/9 1/3/9 9/22/9 16/42/9
f 17/44/1 21/55/1 13/33/1
f 20/52/2 52/116/2 54/122/2 53/119/2
f 18/47/2 22/57/2 15/39/2
f 17/46/1 18/48/1 21/56/1
f 18/48/2 68/152/2 19/51/2 22/58/2
f 18/48/2 66/148/2 68/152/2
f 68/152/10 66/148/10 69/154/10
f 65/146/2 66/148/2 60/137/2
f 66/148/2 18/48/2 60/137/2
f 58/132/1 62/140/1 57/130/1
f 57/130/1 62/140/1 64/144/1
f 62/140/1 59/134/1 64/144/1
f 59/134/1 60/136/1 64/144/1
f 57/130/1 61/138/1 58/132/1
f 9/23/5 10/26/5 26/65/5 25/63/5
f 10/26/6 11/29/6 27/66/6 26/65/6
f 11/29/7 12/31/7 28/68/7 27/67/7
f 12/31/4 13/34/4 29/69/4 28/68/4
f 13/35/1 14/37/1 30/71/1 29/70/1
f 14/37/2 15/40/2 31/72/2 30/71/2
f 15/41/8 16/43/8 32/74/8 31/73/8
f 16/43/9 9/24/9 25/64/9 32/74/9
f 33/75/5 34/77/5 42/93/5 41/91/5
f 34/77/6 35/79/6 43/95/6 42/93/6
f 35/79/7 36/81/7 44/97/7 43/95/7
f 36/81/4 37/83/4 45/99/4 44/97/4
f 37/82/1 38/84/1 46/101/1 45/100/1
f 38/84/2 39/86/2 47/103/2 46/101/2
f 39/87/8 40/89/8 48/104/8 47/102/8
f 40/89/9 33/75/9 41/91/9 48/104/9
f 34/78/3 33/76/3 38/85/3
f 35/80/3 34/78/3 38/85/3
f 36/81/3 35/80/3 38/85/3
f 37/83/3 36/81/3 38/85/3
f 40/90/3 39/88/3 38/85/3
f 33/76/3 40/90/3 38/85/3
f 41/92/11 42/94/11 46/101/11
f 42/94/11 43/96/11 46/101/11
f 43/96/11 44/98/11 46/101/11
f 44/98/11 45/100/11 46/101/11
f 47/103/11 48/105/11 46/101/11
f 48/105/11 41/92/11 46/101/11
f 4/10/4 5/12/4 50/110/4 49/107/4
f 5/13/1 52/117/1 50/111/1
f 5/13/1 6/15/1 52/117/1
f 6/15/2 7/17/2 52/117/2
f 54/123/2 52/117/2 7/17/2
f 7/18/8 8/20/8 54/124/8
f 54/125/8 56/129/8 55/127/8 53/120/8
f 19/50/2 23/59/2 53/121/2
f 20/53/2 53/121/2 23/59/2
f 51/114/1 20/53/1 24/61/1
f 51/114/1 24/61/1 17/44/1
f 49/107/4 51/115/4 17/45/4
f 24/62/1 58/133/1 17/46/1
f 17/46/1 58/133/1 61/139/1
f 59/135/1 62/141/1 20/54/1
f 20/54/1 62/141/1 24/62/1
f 24/62/1 62/141/1 58/133/1
f 59/134/2 63/143/2 65/147/2 60/136/2
f 57/131/12 64/145/12 18/48/12
f 64/145/1 60/137/1 18/48/1
f 17/46/1 61/139/1 18/48/1
f 61/139/1 57/131/1 18/48/1
f 20/54/2 23/60/2 59/135/2
f 59/135/10 23/60/10 63/142/10
f 23/60/10 67/150/10 63/142/10
f 68/152/10 70/156/10 19/51/10
f 19/51/13 70/156/13 23/60/13
f 70/156/14 67/150/14 23/60/14
f 68/153/10 69/155/10 70/157/10
f 66/149/15 67/151/15 69/155/15
f 69/155/15 67/151/15 70/157/15
f 63/143/2 67/151/2 66/149/2 65/147/2
