# Blender 3.3.1
# www.blender.org
mtllib coffee_002.mtl
o coffee_002
v 0.051447 0.014119 -0.054897
v -0.003451 0.014119 -0.077636
v -0.058348 0.014119 -0.054897
v -0.081087 0.014119 0.000000
v -0.058348 0.014119 0.054898
v -0.003451 0.014119 0.077637
v 0.051447 0.014119 0.054898
v 0.074186 0.014119 0.000000
v 0.051447 0.019293 -0.054897
v -0.003451 0.019293 -0.077636
v -0.058348 0.019293 -0.054897
v -0.081087 0.019293 0.000000
v -0.058348 0.019293 0.054898
v -0.003451 0.019293 0.077637
v 0.051447 0.019293 0.054898
v 0.074186 0.019293 0.000000
v 0.023370 0.000066 -0.026820
v -0.003451 0.000066 -0.037929
v -0.030271 0.000066 -0.026820
v -0.041380 0.000066 0.000000
v -0.030271 0.000066 0.026821
v -0.003451 0.000066 0.037930
v 0.023370 0.000066 0.026821
v 0.034479 0.000066 0.000000
v 0.023370 0.007429 -0.026820
v -0.003451 0.007429 -0.037929
v -0.030271 0.007429 -0.026820
v -0.041380 0.007429 0.000000
v -0.030271 0.007429 0.026821
v -0.003451 0.007429 0.037930
v 0.023370 0.007429 0.026821
v 0.034479 0.007429 0.000000
v 0.054679 0.056903 -0.003941
v 0.040075 0.055808 -0.003941
v 0.052033 0.048491 0.000000
v 0.040075 0.046878 0.000000
v 0.054679 0.056903 0.003942
v 0.040075 0.055808 0.003942
v 0.065771 0.040774 0.003942
v 0.065771 0.040774 -0.003941
v 0.057921 0.039963 0.000000
v 0.056237 0.022668 0.003942
v 0.056237 0.022668 -0.003941
v 0.049410 0.027133 0.000000
v 0.020067 0.007698 0.003942
v 0.020067 0.007698 -0.003941
v 0.018026 0.016323 0.000000
v -0.044682 0.028047 0.000000
v 0.037780 0.028047 0.000000
v -0.051112 0.058589 0.000000
v 0.044210 0.058589 0.000000
v -0.003451 0.004939 0.000000
v -0.028612 0.004939 0.000000
v 0.021711 0.004939 0.000000
v -0.048080 0.058589 0.000000
v 0.041178 0.058589 0.000000
v 0.027240 0.061728 0.000000
v -0.031946 0.061728 0.000000
v 0.021706 0.061728 0.000000
v 0.017837 0.061728 0.000000
v 0.000566 0.061728 0.000000
v 0.008847 0.061728 0.000000
v -0.016809 0.061728 0.000000
v -0.005794 0.061728 0.000000
v -0.032605 0.028047 -0.029154
v -0.003451 0.028047 -0.041230
v 0.025704 0.028047 -0.029154
v -0.037152 0.058589 -0.033701
v -0.003451 0.058589 -0.047660
v 0.030251 0.058589 -0.033701
v -0.021243 0.004939 -0.017792
v -0.003451 0.004939 -0.025161
v 0.014341 0.004939 -0.017792
v -0.035008 0.058589 -0.031557
v -0.003451 0.058589 -0.044628
v 0.028107 0.058589 -0.031557
v -0.025152 0.061728 -0.021701
v -0.003451 0.061728 -0.030690
v 0.018251 0.061728 -0.021701
v -0.023141 0.061728 -0.019949
v -0.003451 0.061728 -0.026753
v 0.014752 0.061728 -0.018202
v -0.002088 0.061728 -0.018978
v 0.006808 0.061728 -0.018568
v 0.014642 0.061728 -0.009956
v -0.006626 0.061728 -0.022032
v 0.004699 0.061728 -0.010055
v 0.010397 0.061728 -0.001972
v 0.002158 0.061728 -0.002280
v -0.001817 0.061728 -0.008326
v -0.004713 0.061728 -0.014880
v -0.011059 0.061728 -0.017381
v -0.011169 0.061728 -0.012034
v -0.007577 0.061728 -0.004632
v -0.028522 0.061728 -0.007758
v -0.013838 0.061728 -0.002696
v -0.019061 0.061728 -0.006835
v -0.024367 0.061728 -0.009648
v -0.025011 0.061728 -0.002792
v -0.026883 0.061728 -0.011470
v -0.022381 0.061728 -0.012526
v -0.013205 0.061728 -0.006351
v -0.016790 0.061728 -0.011258
v -0.013424 0.061728 -0.019501
v -0.003775 0.061728 -0.016884
v -0.008552 0.061728 -0.022800
v 0.000146 0.061728 -0.022081
v -0.032605 0.028047 0.029155
v -0.003451 0.028047 0.041232
v 0.025704 0.028047 0.029155
v -0.037152 0.058589 0.033702
v -0.003451 0.058589 0.047662
v 0.030251 0.058589 0.033702
v -0.021243 0.004939 0.017793
v -0.003451 0.004939 0.025162
v 0.014341 0.004939 0.017793
v -0.035008 0.058589 0.031557
v -0.003451 0.058589 0.044629
v 0.028107 0.058589 0.031557
v -0.025152 0.061728 0.021702
v -0.003451 0.061728 0.030691
v 0.018251 0.061728 0.021702
v -0.023141 0.061728 0.019950
v -0.003451 0.061728 0.026754
v 0.014752 0.061728 0.018203
v -0.002088 0.061728 0.018979
v 0.006808 0.061728 0.018569
v 0.014642 0.061728 0.009957
v -0.006626 0.061728 0.022033
v 0.004699 0.061728 0.010056
v 0.010397 0.061728 0.001973
v 0.002158 0.061728 0.002282
v -0.001817 0.061728 0.008326
v -0.004713 0.061728 0.014881
v -0.011059 0.061728 0.017382
v -0.011169 0.061728 0.012035
v -0.007577 0.061728 0.004633
v -0.028522 0.061728 0.007759
v -0.013838 0.061728 0.002697
v -0.019061 0.061728 0.006836
v -0.024367 0.061728 0.009649
v -0.025011 0.061728 0.002793
v -0.026883 0.061728 0.011472
v -0.022381 0.061728 0.012527
v -0.013205 0.061728 0.006353
v -0.016790 0.061728 0.011259
v -0.013424 0.061728 0.019502
v -0.003775 0.061728 0.016884
v -0.008552 0.061728 0.022800
v 0.000146 0.061728 0.022082
vn 0.3827 -0.0000 -0.9239
vn -0.3827 -0.0000 -0.9239
vn -0.9239 -0.0000 -0.3827
vn -0.9239 -0.0000 0.3827
vn -0.3827 -0.0000 0.9239
vn 0.3827 -0.0000 0.9239
vn 0.9239 -0.0000 0.3827
vn 0.9239 -0.0000 -0.3827
vn -0.0000 -1.0000 -0.0000
vn -0.0000 1.0000 -0.0000
vn 0.3305 -0.9338 0.1369
vn 0.1369 -0.9338 0.3305
vn -0.1369 -0.9338 0.3305
vn -0.3305 -0.9338 0.1369
vn -0.3305 -0.9338 -0.1369
vn -0.1369 -0.9338 -0.3305
vn 0.1369 -0.9338 -0.3305
vn 0.3305 -0.9338 -0.1369
vn -0.2843 0.9515 0.1178
vn -0.1178 0.9515 0.2843
vn 0.1178 0.9515 0.2843
vn 0.2843 0.9515 0.1178
vn 0.2843 0.9515 -0.1177
vn 0.1178 0.9515 -0.2843
vn -0.1177 0.9515 -0.2843
vn -0.2843 0.9515 -0.1177
vn 0.0427 -0.4188 -0.9071
vn 0.0427 -0.4189 0.9070
vn -0.0748 0.9972 -0.0000
vn 0.8240 0.5667 -0.0000
vn -0.4068 -0.2802 -0.8695
vn -0.4068 -0.2802 0.8695
vn 0.8848 -0.4659 -0.0000
vn -0.4122 0.2404 -0.8788
vn -0.4122 0.2404 0.8788
vn 0.3824 -0.9240 -0.0000
vn -0.1625 0.4259 -0.8901
vn -0.1625 0.4259 0.8900
vn -0.9069 -0.1909 -0.3756
vn -0.3756 -0.1909 -0.9069
vn 0.3756 -0.1909 -0.9069
vn 0.9069 -0.1909 -0.3756
vn -0.7773 -0.5405 -0.3220
vn -0.3220 -0.5405 -0.7773
vn 0.3220 -0.5405 -0.7773
vn 0.7773 -0.5405 -0.3220
vn -0.2188 0.9716 -0.0906
vn -0.0906 0.9716 -0.2188
vn 0.0906 0.9716 -0.2188
vn 0.2188 0.9715 -0.0906
vn -0.1753 0.9830 -0.0549
vn -0.9069 -0.1909 0.3756
vn -0.3756 -0.1909 0.9069
vn 0.3756 -0.1909 0.9069
vn 0.9069 -0.1909 0.3756
vn -0.7773 -0.5405 0.3220
vn -0.3220 -0.5405 0.7773
vn 0.3220 -0.5405 0.7773
vn 0.7773 -0.5405 0.3220
vn -0.2188 0.9716 0.0906
vn -0.0906 0.9716 0.2188
vn 0.0906 0.9716 0.2188
vn 0.2188 0.9715 0.0906
vn -0.1753 0.9830 0.0549
vt 0.852937 0.114110
vt 0.852937 0.114112
vt 0.852937 0.114112
vt 0.852937 0.114112
vt 0.852937 0.114112
vt 0.852937 0.114112
vt 0.852937 0.114112
vt 0.852937 0.114110
vt 0.852937 0.114110
vt 0.734614 0.753677
vt 0.852937 0.114112
vt 0.734614 0.753440
vt 0.852937 0.114111
vt 0.734614 0.753677
vt 0.852937 0.114111
vt 0.734614 0.754250
vt 0.852937 0.114111
vt 0.734614 0.754822
vt 0.852937 0.114111
vt 0.734614 0.755059
vt 0.852937 0.114110
vt 0.734614 0.754822
vt 0.852937 0.114110
vt 0.734614 0.754250
vt 0.852937 0.114111
vt 0.852937 0.114111
vt 0.852937 0.114111
vt 0.852937 0.114112
vt 0.852937 0.114112
vt 0.852937 0.114112
vt 0.852937 0.114112
vt 0.852937 0.114111
vt 0.734614 0.753970
vt 0.734614 0.753854
vt 0.734614 0.753970
vt 0.734614 0.754250
vt 0.734614 0.754529
vt 0.734614 0.754645
vt 0.734614 0.754529
vt 0.734614 0.754250
vt 0.734614 0.744535
vt 0.734614 0.743612
vt 0.734614 0.744655
vt 0.734614 0.744625
vt 0.734614 0.744141
vt 0.734614 0.744428
vt 0.734614 0.743841
vt 0.734614 0.744384
vt 0.734614 0.743885
vt 0.734614 0.744535
vt 0.734614 0.743614
vt 0.734614 0.743644
vt 0.734614 0.744141
vt 0.734614 0.744049
vt 0.734614 0.744047
vt 0.734614 0.744219
vt 0.734614 0.744198
vt 0.734614 0.744071
vt 0.734614 0.744538
vt 0.734614 0.744535
vt 0.734614 0.743731
vt 0.734614 0.743852
vt 0.734614 0.744417
vt 0.734614 0.743560
vt 0.734614 0.744941
vt 0.734614 0.743560
vt 0.734614 0.743327
vt 0.734614 0.743560
vt 0.734614 0.744709
vt 0.734614 0.752231
vt 0.734614 0.751944
vt 0.734614 0.752231
vt 0.855601 0.115097
vt 0.734614 0.751944
vt 0.853432 0.115097
vt 0.734614 0.752028
vt 0.734614 0.752028
vt 0.734614 0.752231
vt 0.734614 0.751944
vt 0.855532 0.115097
vt 0.642611 0.267682
vt 0.853501 0.115097
vt 0.642611 0.267940
vt 0.642611 0.267130
vt 0.869131 0.063222
vt 0.642611 0.267081
vt 0.642611 0.335330
vt 0.869131 0.063431
vt 0.642611 0.339462
vt 0.642611 0.338406
vt 0.870225 0.064090
vt 0.642611 0.333691
vt 0.870181 0.063535
vt 0.642611 0.335951
vt 0.870181 0.063222
vt 0.642611 0.339462
vt 0.869509 0.063638
vt 0.642611 0.331954
vt 0.869509 0.063222
vt 0.734614 0.749316
vt 0.734614 0.753018
vt 0.734614 0.751242
vt 0.734614 0.750103
vt 0.734614 0.750916
vt 0.734614 0.750889
vt 0.734614 0.751158
vt 0.734614 0.753140
vt 0.734614 0.749193
vt 0.855283 0.115864
vt 0.734614 0.750103
vt 0.854516 0.116181
vt 0.734614 0.751035
vt 0.853749 0.115864
vt 0.734614 0.752711
vt 0.734614 0.751548
vt 0.734614 0.751349
vt 0.734614 0.751464
vt 0.855234 0.115815
vt 0.642611 0.267712
vt 0.854516 0.116112
vt 0.642611 0.267794
vt 0.853798 0.115815
vt 0.642611 0.267892
vt 0.642611 0.267086
vt 0.868312 0.065201
vt 0.642611 0.267102
vt 0.867972 0.064381
vt 0.642611 0.267121
vt 0.868312 0.063562
vt 0.868378 0.065125
vt 0.642730 0.204535
vt 0.868121 0.064381
vt 0.642611 0.332594
vt 0.642730 0.204535
vt 0.868444 0.063694
vt 0.642611 0.337563
vt 0.642611 0.332966
vt 0.868690 0.064285
vt 0.869508 0.064842
vt 0.642611 0.335395
vt 0.868577 0.066743
vt 0.869524 0.064506
vt 0.642611 0.337533
vt 0.869849 0.064210
vt 0.642611 0.331727
vt 0.869534 0.063030
vt 0.642611 0.334819
vt 0.869845 0.064586
vt 0.642611 0.336374
vt 0.870150 0.064371
vt 0.642611 0.334125
vt 0.870094 0.063475
vt 0.642611 0.333040
vt 0.869866 0.063625
vt 0.642611 0.332250
vt 0.869619 0.063734
vt 0.642611 0.330517
vt 0.869524 0.063974
vt 0.642611 0.330487
vt 0.869726 0.063978
vt 0.642611 0.331468
vt 0.870006 0.063843
vt 0.642611 0.267083
vt 0.642611 0.325750
vt 0.642611 0.336265
vt 0.869216 0.064081
vt 0.642611 0.329759
vt 0.869408 0.063526
vt 0.642611 0.328332
vt 0.869251 0.063723
vt 0.642611 0.326884
vt 0.869145 0.063924
vt 0.642611 0.337223
vt 0.869404 0.063948
vt 0.642611 0.267084
vt 0.642611 0.326197
vt 0.868698 0.065266
vt 0.642730 0.204535
vt 0.642611 0.327426
vt 0.642730 0.204535
vt 0.642611 0.329931
vt 0.642730 0.204535
vt 0.642611 0.328952
vt 0.642730 0.204535
vt 0.642611 0.329872
vt 0.642730 0.204535
vt 0.642611 0.332506
vt 0.642730 0.204535
vt 0.642611 0.331201
vt 0.642730 0.204535
vt 0.642611 0.333576
vt 0.642730 0.204535
vt 0.734614 0.749316
vt 0.734614 0.753018
vt 0.734614 0.751242
vt 0.734614 0.750103
vt 0.734614 0.750916
vt 0.734614 0.750889
vt 0.734614 0.751158
vt 0.734614 0.753140
vt 0.734614 0.749193
vt 0.855283 0.115864
vt 0.734614 0.750103
vt 0.854516 0.116181
vt 0.734614 0.751035
vt 0.853749 0.115864
vt 0.734614 0.752711
vt 0.734614 0.751548
vt 0.734614 0.751349
vt 0.734614 0.751464
vt 0.855234 0.115815
vt 0.642611 0.267712
vt 0.854516 0.116112
vt 0.642611 0.267794
vt 0.853798 0.115815
vt 0.642611 0.267892
vt 0.642611 0.267086
vt 0.868312 0.065201
vt 0.642611 0.267102
vt 0.867972 0.064381
vt 0.642611 0.267121
vt 0.868312 0.063562
vt 0.868378 0.065125
vt 0.642730 0.204535
vt 0.868121 0.064381
vt 0.642611 0.332594
vt 0.642730 0.204535
vt 0.868444 0.063694
vt 0.642611 0.337563
vt 0.642611 0.332966
vt 0.868690 0.064285
vt 0.869508 0.064842
vt 0.642611 0.335395
vt 0.868577 0.066743
vt 0.869524 0.064506
vt 0.642611 0.337533
vt 0.869849 0.064210
vt 0.642611 0.331727
vt 0.869534 0.063030
vt 0.642611 0.334819
vt 0.869845 0.064586
vt 0.642611 0.336374
vt 0.870150 0.064371
vt 0.642611 0.334125
vt 0.870094 0.063475
vt 0.642611 0.333040
vt 0.869866 0.063625
vt 0.642611 0.332250
vt 0.869619 0.063734
vt 0.642611 0.330517
vt 0.869524 0.063974
vt 0.642611 0.330487
vt 0.869726 0.063978
vt 0.642611 0.331468
vt 0.870006 0.063843
vt 0.642611 0.267083
vt 0.642611 0.325750
vt 0.642611 0.336265
vt 0.869216 0.064081
vt 0.642611 0.329759
vt 0.869408 0.063526
vt 0.642611 0.328332
vt 0.869251 0.063723
vt 0.642611 0.326884
vt 0.869145 0.063924
vt 0.642611 0.337223
vt 0.869404 0.063948
vt 0.642611 0.267084
vt 0.642611 0.326197
vt 0.868698 0.065266
vt 0.642730 0.204535
vt 0.642611 0.327426
vt 0.642730 0.204535
vt 0.642611 0.329931
vt 0.642730 0.204535
vt 0.642611 0.328952
vt 0.642730 0.204535
vt 0.642611 0.329872
vt 0.642730 0.204535
vt 0.642611 0.332506
vt 0.642730 0.204535
vt 0.642611 0.331201
vt 0.642730 0.204535
vt 0.642611 0.333576
vt 0.642730 0.204535
s 1
usemtl Material
f 1/1/1 2/2/1 10/11/1 9/9/1
f 2/2/2 3/3/2 11/13/2 10/11/2
f 3/3/3 4/4/3 12/15/3 11/13/3
f 4/4/4 5/5/4 13/17/4 12/15/4
f 5/5/5 6/6/5 14/19/5 13/17/5
f 6/6/6 7/7/6 15/21/6 14/19/6
f 7/7/7 8/8/7 16/23/7 15/21/7
f 8/8/8 1/1/8 9/9/8 16/23/8
f 23/31/9 22/30/9 24/32/9
f 22/30/9 21/29/9 24/32/9
f 21/29/9 20/28/9 24/32/9
f 20/28/9 19/27/9 24/32/9
f 19/27/9 18/26/9 24/32/9
f 18/26/9 17/25/9 24/32/9
f 32/40/10 25/33/10 31/39/10
f 25/33/10 26/34/10 31/39/10
f 26/34/10 27/35/10 31/39/10
f 27/35/10 28/36/10 31/39/10
f 28/36/10 29/37/10 31/39/10
f 29/37/10 30/38/10 31/39/10
f 8/8/11 7/7/11 23/31/11 24/32/11
f 7/7/12 6/6/12 22/30/12 23/31/12
f 6/6/13 5/5/13 21/29/13 22/30/13
f 5/5/14 4/4/14 20/28/14 21/29/14
f 4/4/15 3/3/15 19/27/15 20/28/15
f 3/3/16 2/2/16 18/26/16 19/27/16
f 2/2/17 1/1/17 17/25/17 18/26/17
f 1/1/18 8/8/18 24/32/18 17/25/18
f 16/24/19 9/10/19 25/33/19 32/40/19
f 9/10/20 10/12/20 26/34/20 25/33/20
f 10/12/21 11/14/21 27/35/21 26/34/21
f 11/14/22 12/16/22 28/36/22 27/35/22
f 12/16/23 13/18/23 29/37/23 28/36/23
f 13/18/24 14/20/24 30/38/24 29/37/24
f 14/20/25 15/22/25 31/39/25 30/38/25
f 15/22/26 16/24/26 32/40/26 31/39/26
f 33/43/27 35/46/27 36/48/27 34/44/27
f 35/47/28 37/51/28 38/52/28 36/49/28
f 37/50/29 33/41/29 34/45/29 38/53/29
f 37/51/30 39/54/30 40/55/30 33/42/30
f 33/43/31 40/56/31 41/57/31 35/46/31
f 35/47/32 41/58/32 39/54/32 37/51/32
f 39/54/33 42/59/33 43/60/33 40/55/33
f 40/56/34 43/61/34 44/62/34 41/57/34
f 41/58/35 44/63/35 42/59/35 39/54/35
f 43/60/36 42/59/36 45/64/36 46/66/36
f 44/62/37 43/61/37 46/67/37 47/68/37
f 42/59/38 44/63/38 47/69/38 45/65/38
f 68/107/39 65/101/39 48/70/39 50/72/39
f 69/110/40 66/103/40 65/100/40 68/108/40
f 70/112/41 67/105/41 66/103/41 69/110/41
f 51/74/42 49/71/42 67/106/42 70/112/42
f 71/115/9 52/76/9 53/77/9
f 72/116/9 52/76/9 71/115/9
f 73/117/9 52/76/9 72/116/9
f 54/79/9 52/76/9 73/117/9
f 65/101/43 71/114/43 53/78/43 48/70/43
f 66/104/44 72/116/44 71/115/44 65/102/44
f 67/106/45 73/117/45 72/116/45 66/104/45
f 49/71/46 54/79/46 73/117/46 67/106/46
f 50/73/10 55/80/10 74/118/10 68/109/10
f 68/109/10 74/118/10 75/120/10 69/111/10
f 69/111/10 75/120/10 76/122/10 70/113/10
f 70/113/10 76/122/10 56/82/10 51/75/10
f 55/81/47 77/124/47 74/119/47
f 74/119/48 77/124/48 78/126/48 75/121/48
f 75/121/49 78/126/49 79/128/49 76/123/49
f 76/123/50 79/128/50 57/84/50 56/83/50
f 55/81/51 58/86/51 95/163/51 100/175/51 77/124/51
f 77/125/10 80/130/10 81/132/10 78/127/10
f 78/127/10 81/132/10 82/135/10 79/129/10
f 79/129/10 82/135/10 59/88/10 57/85/10
f 84/140/10 85/143/10 82/136/10
f 82/136/10 85/143/10 59/89/10
f 60/90/10 59/89/10 85/143/10
f 82/136/10 81/133/10 84/140/10
f 81/133/10 107/191/10 84/140/10
f 84/140/10 107/191/10 86/145/10
f 107/191/10 106/189/10 86/145/10
f 106/189/10 105/187/10 86/145/10
f 105/187/10 83/137/10 86/145/10
f 60/90/10 88/149/10 62/94/10
f 61/92/10 94/161/10 64/98/10
f 95/164/10 98/171/10 100/176/10
f 64/98/10 94/161/10 96/167/10
f 100/176/10 98/171/10 101/179/10
f 83/137/10 105/187/10 87/147/10
f 96/167/10 94/161/10 102/181/10
f 102/181/10 94/161/10 93/159/10
f 98/171/10 97/169/10 101/179/10
f 101/179/10 97/169/10 102/181/10
f 97/169/10 96/167/10 102/181/10
f 102/181/10 93/159/10 103/183/10
f 103/183/10 93/159/10 104/185/10
f 93/159/10 92/157/10 104/185/10
f 104/185/10 92/157/10 105/187/10
f 92/157/10 91/155/10 105/187/10
f 105/187/10 91/155/10 87/147/10
f 91/155/10 90/153/10 87/147/10
f 90/153/10 89/151/10 87/147/10
f 89/151/10 62/94/10 87/147/10
f 62/94/10 88/149/10 87/147/10
f 83/138/10 84/141/10 86/146/10
f 83/139/10 87/148/10 84/142/10
f 60/91/10 85/144/10 88/150/10
f 84/142/10 87/148/10 85/144/10
f 85/144/10 87/148/10 88/150/10
f 62/95/10 89/152/10 61/93/10
f 92/158/10 93/160/10 91/156/10
f 93/160/10 94/162/10 91/156/10
f 91/156/10 94/162/10 90/154/10
f 90/154/10 94/162/10 89/152/10
f 61/93/10 89/152/10 94/162/10
f 63/96/10 99/173/10 58/87/10
f 58/87/10 99/173/10 95/165/10
f 64/99/10 96/168/10 63/97/10
f 96/168/10 97/170/10 63/97/10
f 63/97/10 97/170/10 99/174/10
f 97/170/10 98/172/10 99/174/10
f 98/172/10 95/166/10 99/174/10
f 100/177/10 80/130/10 77/125/10
f 102/182/10 103/184/10 101/180/10
f 103/184/10 80/131/10 101/180/10
f 80/131/10 100/178/10 101/180/10
f 104/186/10 80/131/10 103/184/10
f 81/134/10 80/131/10 106/190/10
f 80/131/10 104/186/10 106/190/10
f 105/188/10 106/190/10 104/186/10
f 81/134/10 106/190/10 107/192/10
f 111/200/52 50/72/52 48/70/52 108/194/52
f 112/203/53 111/201/53 108/193/53 109/196/53
f 113/205/54 112/203/54 109/196/54 110/198/54
f 51/74/55 113/205/55 110/199/55 49/71/55
f 114/208/9 53/77/9 52/76/9
f 115/209/9 114/208/9 52/76/9
f 116/210/9 115/209/9 52/76/9
f 54/79/9 116/210/9 52/76/9
f 108/194/56 48/70/56 53/78/56 114/207/56
f 109/197/57 108/195/57 114/208/57 115/209/57
f 110/199/58 109/197/58 115/209/58 116/210/58
f 49/71/59 110/199/59 116/210/59 54/79/59
f 50/73/10 111/202/10 117/211/10 55/80/10
f 111/202/10 112/204/10 118/213/10 117/211/10
f 112/204/10 113/206/10 119/215/10 118/213/10
f 113/206/10 51/75/10 56/82/10 119/215/10
f 55/81/60 117/212/60 120/217/60
f 117/212/61 118/214/61 121/219/61 120/217/61
f 118/214/62 119/216/62 122/221/62 121/219/62
f 119/216/63 56/83/63 57/84/63 122/221/63
f 55/81/64 120/217/64 143/268/64 138/256/64 58/86/64
f 120/218/10 121/220/10 124/225/10 123/223/10
f 121/220/10 122/222/10 125/228/10 124/225/10
f 122/222/10 57/85/10 59/88/10 125/228/10
f 127/233/10 125/229/10 128/236/10
f 125/229/10 59/89/10 128/236/10
f 60/90/10 128/236/10 59/89/10
f 125/229/10 127/233/10 124/226/10
f 124/226/10 127/233/10 150/284/10
f 127/233/10 129/238/10 150/284/10
f 150/284/10 129/238/10 149/282/10
f 126/230/10 148/280/10 129/238/10
f 129/238/10 148/280/10 149/282/10
f 60/90/10 62/94/10 131/242/10
f 61/92/10 64/98/10 137/254/10
f 138/257/10 143/269/10 141/264/10
f 64/98/10 139/260/10 137/254/10
f 143/269/10 144/272/10 141/264/10
f 126/230/10 130/240/10 148/280/10
f 136/252/10 137/254/10 145/274/10
f 145/274/10 137/254/10 139/260/10
f 141/264/10 144/272/10 140/262/10
f 144/272/10 145/274/10 140/262/10
f 140/262/10 145/274/10 139/260/10
f 145/274/10 146/276/10 136/252/10
f 146/276/10 147/278/10 136/252/10
f 136/252/10 147/278/10 135/250/10
f 147/278/10 148/280/10 135/250/10
f 135/250/10 148/280/10 134/248/10
f 148/280/10 130/240/10 134/248/10
f 134/248/10 130/240/10 133/246/10
f 133/246/10 130/240/10 132/244/10
f 132/244/10 130/240/10 62/94/10
f 130/240/10 131/242/10 62/94/10
f 126/231/10 129/239/10 127/234/10
f 126/232/10 127/235/10 130/241/10
f 60/91/10 131/243/10 128/237/10
f 127/235/10 128/237/10 130/241/10
f 131/243/10 130/241/10 128/237/10
f 62/95/10 61/93/10 132/245/10
f 135/251/10 134/249/10 136/253/10
f 136/253/10 134/249/10 137/255/10
f 134/249/10 133/247/10 137/255/10
f 133/247/10 132/245/10 137/255/10
f 61/93/10 137/255/10 132/245/10
f 138/258/10 142/266/10 58/87/10
f 58/87/10 142/266/10 63/96/10
f 64/99/10 63/97/10 139/261/10
f 138/259/10 141/265/10 142/267/10
f 141/265/10 140/263/10 142/267/10
f 142/267/10 140/263/10 63/97/10
f 63/97/10 140/263/10 139/261/10
f 143/270/10 120/218/10 123/223/10
f 145/275/10 144/273/10 146/277/10
f 146/277/10 144/273/10 123/224/10
f 123/224/10 144/273/10 143/271/10
f 147/279/10 146/277/10 123/224/10
f 124/227/10 149/283/10 123/224/10
f 147/279/10 123/224/10 149/283/10
f 150/285/10 149/283/10 124/227/10
f 149/283/10 148/281/10 147/279/10
