# Blender 3.3.1
# www.blender.org
mtllib donut_001.mtl
o donut_001
v 0.015718 0.017537 -0.008512
v 0.008937 0.017537 -0.015293
v -0.000326 0.017537 -0.017775
v -0.009589 0.017537 -0.015293
v -0.016369 0.017537 -0.008512
v -0.018851 0.017537 0.000750
v -0.016369 0.017537 0.010013
v -0.009589 0.017537 0.016794
v -0.000326 0.017537 0.019276
v 0.008937 0.017537 0.016794
v 0.015718 0.017537 0.010013
v 0.018200 0.017537 0.000750
v -0.019442 0.027325 0.011815
v 0.011495 0.029890 0.021225
v 0.021846 0.026686 0.001100
v -0.000401 0.027519 -0.049825
v -0.048675 0.029890 0.000750
v -0.024501 0.029890 0.042622
v 0.045977 0.017537 -0.025983
v 0.026407 0.017537 -0.045553
v -0.000326 0.017537 -0.052716
v -0.027059 0.017537 -0.045553
v -0.046629 0.017537 -0.025983
v -0.053792 0.017537 0.000750
v -0.046629 0.017537 0.027484
v -0.027059 0.017537 0.047054
v -0.000326 0.017537 0.054217
v 0.026407 0.017537 0.047054
v 0.045977 0.017537 0.027484
v 0.053140 0.017537 0.000750
v 0.041546 0.005183 -0.023424
v 0.023849 0.005183 -0.041121
v -0.000326 0.005183 -0.047599
v -0.024501 0.005183 -0.041121
v -0.042198 0.005183 -0.023424
v -0.048675 0.005183 0.000750
v -0.042198 0.005183 0.024925
v -0.024501 0.005183 0.042622
v -0.000326 0.005183 0.049099
v 0.023849 0.005183 0.042622
v 0.041546 0.005183 0.024925
v 0.048023 0.005183 0.000750
v 0.030848 0.000066 -0.017248
v 0.017672 0.000066 -0.030423
v -0.000326 0.000066 -0.035246
v -0.018324 0.000066 -0.030423
v -0.031499 0.000066 -0.017248
v -0.036322 0.000066 0.000750
v -0.031499 0.000066 0.018748
v -0.018324 0.000066 0.031924
v -0.000326 0.000066 0.036746
v 0.017672 0.000066 0.031924
v 0.030848 0.000066 0.018748
v 0.035670 0.000066 0.000750
v 0.020149 0.005183 -0.011071
v 0.011495 0.005183 -0.019725
v -0.000326 0.005183 -0.022892
v -0.012147 0.005183 -0.019725
v -0.020801 0.005183 -0.011071
v -0.023968 0.005183 0.000750
v -0.020801 0.005183 0.012571
v -0.012147 0.005183 0.021225
v -0.000326 0.005183 0.024393
v 0.011495 0.005183 0.021225
v 0.020149 0.005183 0.012571
v 0.023317 0.005183 0.000750
v -0.020652 0.021883 0.000750
v -0.019017 0.023182 -0.010594
v -0.014725 0.027861 -0.015059
v -0.011180 0.025219 -0.018049
v -0.000326 0.025634 -0.021129
v 0.005883 0.027656 -0.020256
v 0.010340 0.024312 -0.017724
v 0.016997 0.021104 -0.009251
v 0.018142 0.024294 0.011412
v -0.000326 0.024569 0.022188
v -0.011076 0.024718 0.019370
v -0.025743 0.023889 -0.043274
v -0.044462 0.023577 -0.024732
v -0.043275 0.026887 0.025547
v -0.000326 0.022812 0.052031
v 0.025836 0.020298 0.046063
v 0.042774 0.026467 0.025634
v 0.050862 0.023038 0.000750
v 0.042928 0.026037 -0.024222
v 0.025504 0.021896 -0.043989
v 0.011400 0.026580 -0.018161
v 0.017549 0.023942 -0.009934
v 0.021971 0.034102 -0.013521
v 0.014046 0.034102 -0.021447
v -0.001032 0.028149 -0.022069
v 0.006691 0.032073 -0.021192
v -0.002847 0.035094 -0.026041
v -0.010731 0.027928 -0.019256
v -0.013673 0.035094 -0.023141
v -0.020116 0.026145 -0.009654
v -0.014907 0.033067 -0.016077
v -0.023067 0.034184 -0.011142
v -0.020654 0.025070 0.000080
v -0.025968 0.034184 -0.000316
v -0.020243 0.032466 0.011355
v -0.010814 0.028399 0.019864
v -0.012160 0.035270 0.023994
v -0.001354 0.028183 0.022654
v -0.001334 0.035270 0.026895
v 0.011901 0.035115 0.022006
v 0.019471 0.028417 0.011951
v 0.022909 0.034021 0.013791
v 0.022793 0.031279 0.000912
v 0.030848 0.037706 -0.017248
v 0.017672 0.037706 -0.030423
v -0.000326 0.037706 -0.035246
v -0.018324 0.037706 -0.030423
v -0.031499 0.037706 -0.017248
v -0.036322 0.037706 0.000750
v -0.031499 0.037706 0.018748
v -0.018324 0.037706 0.031924
v -0.000326 0.037706 0.036746
v 0.017672 0.037706 0.031924
v 0.030848 0.037706 0.018748
v 0.035670 0.037706 0.000750
v 0.038352 0.034260 -0.022237
v 0.023817 0.034180 -0.038726
v -0.000267 0.031373 -0.049264
v -0.022521 0.034195 -0.040133
v -0.040946 0.034195 -0.021708
v -0.048176 0.033738 0.000659
v -0.038524 0.035627 0.022201
v -0.024069 0.033736 0.042368
v -0.001651 0.034748 0.046799
v 0.022109 0.034155 0.040940
v 0.037989 0.034684 0.023558
v 0.044495 0.034675 0.002266
v 0.042858 0.029139 -0.024156
v 0.025710 0.025317 -0.043851
v -0.025935 0.027138 -0.043064
v -0.044263 0.026850 -0.024911
v -0.043242 0.030067 0.025611
v 0.000155 0.026060 0.052055
v 0.025723 0.023707 0.046162
v 0.042653 0.029550 0.025722
v 0.050887 0.026338 0.000784
vn -0.6176 0.4870 0.6176
vn -0.3064 0.4110 0.8586
vn 0.2220 0.5304 0.8182
vn 0.5207 0.3364 0.7847
vn 0.8802 0.4429 0.1704
vn 0.8204 0.4638 -0.3342
vn 0.6951 0.4655 -0.5478
vn 0.2365 0.5161 -0.8232
vn -0.2968 0.4909 -0.8191
vn -0.4754 0.5238 -0.7068
vn -0.8310 0.5455 -0.1086
vn -0.8900 0.4353 0.1358
vn -0.2651 0.9270 0.2651
vn -0.0707 0.9267 0.3692
vn 0.0782 0.9532 0.2920
vn 0.2287 0.9437 0.2392
vn 0.3289 0.9402 0.0881
vn 0.3509 0.9337 -0.0707
vn 0.1895 0.9471 -0.2590
vn 0.0659 0.9671 -0.2459
vn -0.0651 0.9722 -0.2249
vn -0.1724 0.9544 -0.2438
vn -0.4059 0.9028 -0.1420
vn -0.3924 0.9079 0.1473
vn 0.2499 0.9391 -0.2360
vn 0.0789 0.9198 -0.3843
vn -0.0643 0.9257 -0.3728
vn -0.2378 0.9418 -0.2378
vn -0.3143 0.9457 -0.0831
vn -0.2944 0.9537 0.0622
vn -0.2063 0.9523 0.2250
vn -0.0904 0.9525 0.2908
vn 0.0923 0.9469 0.3081
vn 0.2406 0.9392 0.2450
vn 0.3208 0.9426 0.0923
vn 0.3486 0.9320 -0.0990
vn 0.5913 0.5620 -0.5784
vn 0.2892 0.5248 -0.8006
vn -0.2800 0.4806 -0.8310
vn -0.5985 0.5340 -0.5972
vn -0.8328 0.4891 -0.2592
vn -0.6648 0.7088 0.2357
vn -0.5283 0.7222 0.4464
vn -0.1910 0.4787 0.8569
vn 0.2275 0.5165 0.8255
vn 0.5652 0.5789 0.5878
vn 0.7530 0.6280 0.1964
vn 0.7413 0.6462 -0.1813
vn 0.6565 -0.3715 -0.6565
vn 0.2403 -0.3715 -0.8968
vn -0.2403 -0.3715 -0.8968
vn -0.6565 -0.3715 -0.6565
vn -0.8968 -0.3715 -0.2403
vn -0.8968 -0.3715 0.2403
vn -0.6565 -0.3715 0.6565
vn -0.2403 -0.3715 0.8968
vn 0.2403 -0.3715 0.8968
vn 0.6565 -0.3715 0.6565
vn 0.8968 -0.3715 0.2403
vn 0.8968 -0.3715 -0.2403
vn 0.2787 -0.9191 -0.2787
vn 0.1020 -0.9191 -0.3807
vn -0.1020 -0.9191 -0.3807
vn -0.2787 -0.9191 -0.2787
vn -0.3807 -0.9191 -0.1020
vn -0.3807 -0.9191 0.1020
vn -0.2787 -0.9191 0.2787
vn -0.1020 -0.9191 0.3807
vn 0.1020 -0.9191 0.3807
vn 0.2787 -0.9191 0.2787
vn 0.3807 -0.9191 0.1020
vn 0.3807 -0.9191 -0.1020
vn 0.9033 0.3441 -0.2562
vn 0.8782 0.4332 0.2027
vn 0.8225 0.4922 0.2850
vn 0.6195 0.3668 0.6941
vn 0.2403 0.3715 0.8968
vn -0.0857 0.4240 0.9016
vn -0.2408 0.3693 0.8976
vn -0.6565 0.3715 0.6565
vn -0.9037 0.3573 0.2361
vn -0.8982 0.3690 -0.2388
vn -0.6565 0.3715 -0.6565
vn -0.2403 0.3715 -0.8968
vn 0.2403 0.3715 -0.8968
vn 0.6751 0.3491 -0.6499
vn -0.2623 0.3093 -0.9141
vn -0.8968 0.3715 -0.2403
vn -0.8968 0.3715 0.2403
vn -0.2403 0.3715 0.8968
vn 0.6565 0.3715 0.6565
vn 0.8968 0.3715 0.2403
vn 0.8968 0.3715 -0.2403
vn 0.6565 0.3715 -0.6565
vn 0.2588 0.3026 -0.9173
vn -0.6776 0.3551 0.6440
vn -0.2280 0.2575 0.9390
vn 0.2442 0.3790 0.8926
vn 0.6850 0.1143 0.7195
vn 0.9781 0.1699 0.1200
vn 0.9899 0.0795 -0.1175
vn 0.6785 0.0442 -0.7333
vn 0.2669 0.1532 -0.9515
vn -0.1266 0.1298 -0.9834
vn -0.7204 0.2263 -0.6556
vn -0.9355 0.2542 -0.2453
vn -0.9259 0.2224 0.3053
vn 0.7517 0.0050 -0.6595
vn 0.2288 0.0824 -0.9700
vn -0.2560 0.1021 -0.9613
vn -0.7038 0.0042 -0.7104
vn -0.9798 0.0893 -0.1790
vn -0.9743 0.0745 0.2124
vn -0.6704 0.0642 0.7392
vn -0.3462 0.0748 0.9352
vn 0.2207 -0.0301 0.9749
vn 0.7686 0.0093 0.6397
vn 0.9506 0.0083 0.3103
vn 0.9528 0.0113 -0.3034
vn 0.7129 0.1676 0.6810
vn -0.2951 0.2708 0.9163
vt 0.734251 0.248488
vt 0.734251 0.251524
vt 0.734251 0.249276
vt 0.734251 0.251524
vt 0.734251 0.245853
vt 0.734251 0.251524
vt 0.734251 0.246641
vt 0.734251 0.247717
vt 0.734251 0.248794
vt 0.734251 0.252149
vt 0.734251 0.249582
vt 0.734251 0.252149
vt 0.734251 0.245546
vt 0.734251 0.252149
vt 0.734251 0.246334
vt 0.734251 0.247411
vt 0.734251 0.249091
vt 0.149671 0.229399
vt 0.734251 0.245031
vt 0.734251 0.250714
vt 0.150966 0.230235
vt 0.150123 0.230223
vt 0.734251 0.247411
vt 0.150123 0.229574
vt 0.734251 0.247769
vt 0.149288 0.232584
vt 0.734251 0.250044
vt 0.149634 0.232081
vt 0.734251 0.245177
vt 0.734251 0.250857
vt 0.149634 0.233410
vt 0.149170 0.229070
vt 0.734251 0.246937
vt 0.734251 0.244662
vt 0.734251 0.247769
vt 0.734251 0.250876
vt 0.734251 0.255425
vt 0.734251 0.253151
vt 0.734251 0.250044
vt 0.734251 0.246937
vt 0.734251 0.244662
vt 0.734251 0.251155
vt 0.734251 0.248048
vt 0.734251 0.244941
vt 0.734251 0.255425
vt 0.734251 0.253151
vt 0.734251 0.250044
vt 0.734251 0.247234
vt 0.734251 0.236136
vt 0.734251 0.245177
vt 0.734251 0.244960
vt 0.734251 0.234079
vt 0.734251 0.247769
vt 0.734251 0.233326
vt 0.734251 0.250579
vt 0.734251 0.254910
vt 0.734251 0.234079
vt 0.734251 0.252854
vt 0.734251 0.236136
vt 0.734251 0.250044
vt 0.734251 0.238945
vt 0.734251 0.247234
vt 0.734251 0.241755
vt 0.734251 0.245177
vt 0.734251 0.250857
vt 0.734251 0.243812
vt 0.734251 0.248048
vt 0.734251 0.244565
vt 0.734251 0.245238
vt 0.734251 0.254910
vt 0.734251 0.243812
vt 0.734251 0.252854
vt 0.734251 0.241755
vt 0.734251 0.250044
vt 0.734251 0.238945
vt 0.734251 0.236854
vt 0.734251 0.235322
vt 0.734251 0.234762
vt 0.734251 0.235322
vt 0.734251 0.236854
vt 0.734251 0.238945
vt 0.734251 0.241037
vt 0.734251 0.242569
vt 0.734251 0.243129
vt 0.734251 0.242569
vt 0.734251 0.241037
vt 0.734251 0.238945
vt 0.734251 0.237571
vt 0.734251 0.248785
vt 0.734251 0.236566
vt 0.734251 0.249791
vt 0.734251 0.250088
vt 0.734251 0.236198
vt 0.734251 0.250088
vt 0.734251 0.236566
vt 0.734251 0.250088
vt 0.734251 0.245338
vt 0.734251 0.237571
vt 0.734251 0.246343
vt 0.734251 0.238945
vt 0.734251 0.247717
vt 0.734251 0.240319
vt 0.734251 0.249091
vt 0.734251 0.241325
vt 0.734251 0.250097
vt 0.734251 0.253585
vt 0.734251 0.241693
vt 0.734251 0.253585
vt 0.734251 0.241325
vt 0.734251 0.253585
vt 0.734251 0.245031
vt 0.734251 0.240319
vt 0.734251 0.246037
vt 0.734251 0.238945
vt 0.734251 0.247411
vt 0.734251 0.247717
vt 0.149925 0.229774
vt 0.734251 0.246541
vt 0.149931 0.230095
vt 0.734251 0.245673
vt 0.149671 0.230332
vt 0.734251 0.245532
vt 0.734251 0.252417
vt 0.150742 0.229448
vt 0.149819 0.230370
vt 0.734251 0.252465
vt 0.150729 0.229792
vt 0.734251 0.252960
vt 0.150594 0.229978
vt 0.734251 0.252311
vt 0.734251 0.249558
vt 0.150300 0.228988
vt 0.150771 0.230131
vt 0.734251 0.248573
vt 0.150402 0.229256
vt 0.734251 0.246172
vt 0.150301 0.229912
vt 0.734251 0.251332
vt 0.150797 0.229860
vt 0.734251 0.251315
vt 0.734251 0.249881
vt 0.149835 0.229183
vt 0.150802 0.229519
vt 0.734251 0.250723
vt 0.734251 0.255161
vt 0.149098 0.231777
vt 0.149824 0.230684
vt 0.734251 0.253005
vt 0.149834 0.231272
vt 0.734251 0.247162
vt 0.149729 0.232868
vt 0.734251 0.248048
vt 0.149394 0.229837
vt 0.734251 0.245007
vt 0.734251 0.255310
vt 0.149474 0.230667
vt 0.150319 0.230552
vt 0.734251 0.252936
vt 0.150124 0.231200
vt 0.734251 0.250044
vt 0.150232 0.231990
vt 0.734251 0.247141
vt 0.150137 0.232782
vt 0.734251 0.244767
vt 0.150269 0.233410
vt 0.149034 0.233403
vt 0.150228 0.228974
vt 0.150699 0.230164
vt 0.150312 0.229235
vt 0.149990 0.229121
vt 0.151062 0.231329
vt 0.149990 0.228869
vt 0.151314 0.231077
vt 0.150460 0.230248
vt 0.151792 0.231058
vt 0.150649 0.229770
vt 0.151558 0.231052
vt 0.150453 0.230004
vt 0.150429 0.229712
vt 0.151850 0.230932
vt 0.152100 0.231147
vt 0.150656 0.229462
vt 0.149733 0.230409
vt 0.152193 0.231024
vt 0.149506 0.230532
vt 0.149837 0.230065
vt 0.152242 0.231191
vt 0.149506 0.230364
vt 0.149535 0.230151
vt 0.152492 0.231404
vt 0.149824 0.229795
vt 0.149535 0.229808
vt 0.152584 0.231748
vt 0.152445 0.232142
vt 0.149508 0.229413
vt 0.152103 0.232388
vt 0.149718 0.229167
vt 0.150919 0.229527
vt 0.149500 0.229036
vt 0.152145 0.232519
vt 0.151803 0.232477
vt 0.150912 0.229828
vt 0.151137 0.229828
vt 0.151802 0.232611
vt 0.151382 0.232456
vt 0.151132 0.230248
vt 0.149958 0.230248
vt 0.151142 0.232137
vt 0.150170 0.229929
vt 0.149992 0.229988
vt 0.151033 0.232196
vt 0.150990 0.231776
vt 0.149978 0.229568
vt 0.150781 0.231211
vt 0.151199 0.230793
vt 0.151770 0.230640
vt 0.152341 0.230793
vt 0.152759 0.231211
vt 0.152912 0.231782
vt 0.152759 0.232353
vt 0.152341 0.232771
vt 0.151770 0.232924
vt 0.151199 0.232771
vt 0.150781 0.232353
vt 0.150628 0.231782
vt 0.150543 0.231052
vt 0.149876 0.232719
vt 0.149879 0.233243
vt 0.151004 0.230529
vt 0.151766 0.230265
vt 0.149410 0.232588
vt 0.152474 0.230484
vt 0.149425 0.231879
vt 0.149497 0.230784
vt 0.153059 0.231069
vt 0.149497 0.231368
vt 0.153288 0.231779
vt 0.149512 0.232078
vt 0.152982 0.232462
vt 0.149452 0.232762
vt 0.152523 0.233102
vt 0.149512 0.233402
vt 0.149048 0.229083
vt 0.149015 0.229795
vt 0.151812 0.233243
vt 0.151058 0.233057
vt 0.149880 0.230715
vt 0.150554 0.232505
vt 0.149863 0.231266
vt 0.150348 0.231830
vt 0.149863 0.231942
vt 0.150039 0.232780
vt 0.150944 0.230366
vt 0.150160 0.233405
vt 0.149143 0.233410
vt 0.149201 0.231771
vt 0.149721 0.230691
vt 0.149731 0.231267
vt 0.149628 0.232870
vt 0.151755 0.233410
vt 0.149291 0.229852
vt 0.150943 0.233223
vt 0.149366 0.230663
vt 0.150211 0.230549
vt 0.150026 0.231198
vt 0.150128 0.231989
s 1
usemtl Material
f 87/167/1 88/169/1 89/170/1 90/172/1
f 91/176/2 92/178/2 93/179/2
f 94/181/3 91/175/3 93/180/3 95/184/3
f 96/186/4 97/188/4 98/189/4
f 99/191/5 96/186/5 98/189/5 100/192/5
f 101/195/6 99/191/6 100/192/6
f 102/197/7 101/195/7 103/199/7
f 104/201/8 102/196/8 103/200/8 105/204/8
f 106/206/9 104/202/9 105/203/9
f 107/208/10 106/205/10 108/211/10
f 109/213/11 107/209/11 108/210/11
f 88/169/12 109/213/12 89/170/12
f 90/173/13 89/171/13 110/214/13 111/215/13
f 93/180/14 92/177/14 90/173/14 111/215/14 112/216/14
f 95/184/15 93/180/15 112/216/15 113/217/15
f 98/190/16 97/187/16 95/184/16 113/217/16 114/218/16
f 100/193/17 98/190/17 114/218/17 115/219/17
f 101/194/18 100/193/18 115/219/18 116/220/18
f 103/200/19 101/194/19 116/220/19 117/221/19
f 105/204/20 103/200/20 117/221/20 118/222/20
f 106/205/21 105/204/21 118/222/21 119/223/21
f 108/211/22 106/205/22 119/223/22 120/224/22
f 109/212/23 108/211/23 120/224/23 121/225/23
f 89/171/24 109/212/24 121/225/24 110/214/24
f 111/215/25 110/214/25 122/226/25 123/229/25
f 112/216/26 111/215/26 123/229/26 124/230/26
f 113/217/27 112/216/27 124/230/27 125/232/27
f 114/218/28 113/217/28 125/232/28 126/235/28
f 115/219/29 114/218/29 126/235/29 127/237/29
f 116/220/30 115/219/30 127/237/30 128/239/30
f 117/221/31 116/220/31 128/239/31 129/241/31
f 118/222/32 117/221/32 129/241/32 130/245/32
f 119/223/33 118/222/33 130/245/33 131/246/33
f 120/224/34 119/223/34 131/246/34 132/248/34
f 121/225/35 120/224/35 132/248/35 133/250/35
f 110/214/36 121/225/36 133/250/36 122/226/36
f 123/228/37 122/227/37 134/252/37 135/254/37
f 124/230/38 123/229/38 135/253/38
f 125/233/39 124/231/39 136/256/39
f 126/236/40 125/234/40 136/257/40 137/258/40
f 127/238/41 126/236/41 137/258/41
f 128/240/42 127/238/42 138/259/42
f 129/242/43 128/240/43 138/259/43
f 130/244/44 129/243/44 139/261/44
f 131/246/45 130/245/45 139/260/45 140/262/45
f 132/249/46 131/247/46 140/264/46 141/265/46
f 133/251/47 132/249/47 141/265/47 142/266/47
f 122/227/48 133/251/48 142/266/48 134/252/48
f 20/34/49 19/33/49 31/48/49 32/50/49
f 21/35/50 20/34/50 32/51/50 33/53/50
f 22/36/51 21/35/51 33/53/51 34/55/51
f 23/38/52 22/37/52 34/56/52 35/58/52
f 24/39/53 23/38/53 35/58/53 36/60/53
f 25/40/54 24/39/54 36/60/54 37/62/54
f 26/41/55 25/40/55 37/62/55 38/64/55
f 27/43/56 26/42/56 38/65/56 39/67/56
f 28/44/57 27/43/57 39/67/57 40/69/57
f 29/46/58 28/45/58 40/70/58 41/72/58
f 30/47/59 29/46/59 41/72/59 42/74/59
f 19/33/60 30/47/60 42/74/60 31/48/60
f 32/52/61 31/49/61 43/76/61 44/77/61
f 33/54/62 32/52/62 44/77/62 45/78/62
f 34/57/63 33/54/63 45/78/63 46/79/63
f 35/59/64 34/57/64 46/79/64 47/80/64
f 36/61/65 35/59/65 47/80/65 48/81/65
f 37/63/66 36/61/66 48/81/66 49/82/66
f 38/66/67 37/63/67 49/82/67 50/83/67
f 39/68/68 38/66/68 50/83/68 51/84/68
f 40/71/69 39/68/69 51/84/69 52/85/69
f 41/73/70 40/71/70 52/85/70 53/86/70
f 42/75/71 41/73/71 53/86/71 54/87/71
f 31/49/72 42/75/72 54/87/72 43/76/72
f 44/77/67 43/76/67 55/88/67 56/90/67
f 45/78/68 44/77/68 56/90/68 57/93/68
f 46/79/69 45/78/69 57/93/69 58/95/69
f 47/80/70 46/79/70 58/95/70 59/98/70
f 48/81/71 47/80/71 59/98/71 60/100/71
f 49/82/72 48/81/72 60/100/72 61/102/72
f 50/83/61 49/82/61 61/102/61 62/104/61
f 51/84/62 50/83/62 62/104/62 63/107/62
f 52/85/63 51/84/63 63/107/63 64/109/63
f 53/86/64 52/85/64 64/109/64 65/112/64
f 54/87/65 53/86/65 65/112/65 66/114/65
f 43/76/66 54/87/66 66/114/66 55/88/66
f 56/91/55 55/89/55 1/1/55 2/3/55
f 57/94/56 56/92/56 2/2/56 3/4/56
f 58/96/57 57/94/57 3/4/57 4/6/57
f 59/99/58 58/97/58 4/5/58 5/7/58
f 60/101/59 59/99/59 5/7/59 6/8/59
f 61/103/60 60/101/60 6/8/60 7/9/60
f 62/105/49 61/103/49 7/9/49 8/11/49
f 63/108/50 62/106/50 8/10/50 9/12/50
f 64/110/51 63/108/51 9/12/51 10/14/51
f 65/113/52 64/111/52 10/13/52 11/15/52
f 66/115/53 65/113/53 11/15/53 12/16/53
f 55/89/54 66/115/54 12/16/54 1/1/54
f 7/9/73 6/8/73 67/116/73 13/17/73
f 6/8/74 5/7/74 68/118/74 67/116/74
f 97/188/75 94/183/75 95/185/75
f 5/7/76 4/5/76 70/122/76 69/120/76 68/118/76
f 4/6/77 3/4/77 71/126/77 70/123/77
f 92/178/78 87/168/78 90/174/78
f 3/4/79 2/2/79 73/130/79 72/128/79 71/126/79
f 2/3/80 1/1/80 74/134/80 73/131/80
f 1/1/81 12/16/81 15/23/81 74/134/81
f 12/16/82 11/15/82 75/136/82 15/23/82
f 11/15/83 10/13/83 14/19/83 75/136/83
f 10/14/84 9/12/84 76/138/84 14/20/84
f 9/12/85 8/10/85 77/140/85 76/138/85
f 8/11/86 7/9/86 13/17/86 77/141/86
f 78/144/87 16/25/87 21/35/87 22/36/87
f 79/148/83 78/145/83 22/37/83 23/38/83
f 17/27/88 79/148/88 23/38/88 24/39/88
f 80/150/89 17/27/89 24/39/89 25/40/89
f 18/29/80 80/150/80 25/40/80 26/41/80
f 81/152/90 18/30/90 26/42/90 27/43/90
f 82/154/77 81/152/77 27/43/77 28/44/77
f 83/158/91 82/155/91 28/45/91 29/46/91
f 84/160/92 83/158/92 29/46/92 30/47/92
f 85/162/93 84/160/93 30/47/93 19/33/93
f 86/164/94 85/162/94 19/33/94 20/34/94
f 16/25/95 86/164/95 20/34/95 21/35/95
f 73/132/96 74/135/96 88/169/96 87/167/96
f 71/127/97 72/129/97 92/178/97 91/176/97
f 70/124/98 71/127/98 91/176/98 94/182/98
f 68/119/99 69/121/99 97/188/99 96/186/99
f 67/117/100 68/119/100 96/186/100 99/191/100
f 13/18/101 67/117/101 99/191/101 101/195/101
f 77/142/102 13/18/102 101/195/102 102/197/102
f 76/139/103 77/143/103 102/198/103 104/202/103
f 14/21/104 76/139/104 104/202/104 106/206/104
f 75/137/105 14/22/105 106/207/105 107/209/105
f 15/24/106 75/137/106 107/209/106 109/213/106
f 74/135/107 15/24/107 109/213/107 88/169/107
f 85/163/108 86/165/108 135/254/108 134/252/108
f 86/166/109 16/26/109 124/231/109 135/255/109
f 16/26/110 78/146/110 136/256/110 124/231/110
f 78/147/111 79/149/111 137/258/111 136/257/111
f 79/149/112 17/28/112 127/238/112 137/258/112
f 17/28/113 80/151/113 138/259/113 127/238/113
f 80/151/114 18/31/114 129/242/114 138/259/114
f 18/32/115 81/153/115 139/261/115 129/243/115
f 81/153/116 82/156/116 140/263/116 139/261/116
f 82/157/117 83/159/117 141/265/117 140/264/117
f 83/159/118 84/161/118 142/266/118 141/265/118
f 84/161/119 85/163/119 134/252/119 142/266/119
f 69/121/120 70/125/120 94/183/120 97/188/120
f 72/129/121 73/133/121 87/168/121 92/178/121
