# Blender 3.3.1
# www.blender.org
mtllib drink_001.mtl
o drink_001
v 0.011138 0.232583 -0.020418
v -0.011388 0.232583 -0.020167
v -0.011138 0.232583 0.002359
v 0.011388 0.232583 0.002109
v 0.015928 0.232583 -0.009206
v 0.000177 0.232583 0.006899
v -0.015929 0.232583 -0.008852
v -0.000178 0.232583 -0.024958
v 0.011138 0.241930 -0.020418
v -0.000178 0.241930 -0.024958
v -0.011388 0.241930 -0.020167
v -0.015929 0.241930 -0.008852
v -0.011138 0.241930 0.002359
v 0.000177 0.241930 0.006899
v 0.011388 0.241930 0.002109
v 0.015928 0.241930 -0.009206
v 0.043510 0.207822 -0.040635
v 0.051154 0.207822 -0.032990
v 0.036735 0.218590 -0.034314
v 0.044443 0.218590 -0.026729
v 0.051154 0.207821 0.014932
v 0.043510 0.207821 0.022576
v 0.036735 0.218590 0.016256
v 0.044443 0.218590 0.008671
v -0.051154 0.207821 -0.032990
v -0.043510 0.207821 -0.040635
v -0.036735 0.218590 -0.034314
v -0.044443 0.218590 -0.026730
v -0.043510 0.207822 0.022576
v -0.051154 0.207822 0.014932
v -0.036736 0.218590 0.016255
v -0.044443 0.218590 0.008670
v -0.043641 0.000065 -0.033123
v -0.043510 0.007473 -0.040635
v -0.051154 0.007473 -0.032991
v 0.043641 0.000065 -0.033123
v 0.043510 0.007473 -0.040635
v 0.051154 0.007473 -0.032991
v -0.043641 0.000065 0.015063
v -0.051154 0.007473 0.014932
v -0.043510 0.007473 0.022576
v 0.043641 0.000065 0.015063
v 0.043510 0.007473 0.022576
v 0.051154 0.007473 0.014932
v -0.034633 0.198944 0.022576
v 0.034632 0.198944 0.022576
v -0.034633 0.035777 0.022576
v 0.034632 0.035777 0.022576
v -0.029550 0.194174 0.022576
v 0.029550 0.194174 0.022576
v -0.029550 0.040547 0.022576
v 0.029550 0.040547 0.022576
v -0.034633 0.136880 0.022576
v -0.034633 0.111726 0.022576
v -0.029550 0.136880 0.022576
v -0.029550 0.111726 0.022576
v 0.029550 0.136880 0.022576
v 0.029550 0.111726 0.022576
v 0.034632 0.111726 0.022576
v 0.034632 0.136880 0.022576
v -0.016454 0.184568 0.022576
v 0.015463 0.185788 0.022576
v -0.015463 0.145266 0.022576
v 0.016454 0.146486 0.022576
v 0.022569 0.166390 0.022576
v 0.000700 0.137736 0.022576
v -0.022569 0.164664 0.022576
v -0.000701 0.193317 0.022576
v 0.012474 0.278242 -0.021784
v -0.000199 0.278242 -0.026869
v -0.012755 0.278242 -0.021504
v -0.017840 0.278242 -0.008831
v -0.012475 0.278242 0.003725
v 0.000198 0.278242 0.008810
v 0.012755 0.278242 0.003445
v 0.017840 0.278242 -0.009228
v 0.012474 0.241930 -0.021784
v -0.000199 0.241930 -0.026869
v -0.012755 0.241930 -0.021504
v -0.017840 0.241930 -0.008831
v -0.012475 0.241930 0.003725
v 0.000198 0.241930 0.008810
v 0.012755 0.241930 0.003445
v 0.017840 0.241930 -0.009228
vn 0.3723 -0.0000 -0.9281
vn -0.3929 -0.0000 -0.9196
vn -0.9281 -0.0000 -0.3724
vn -0.9196 -0.0000 0.3929
vn -0.3724 -0.0000 0.9281
vn 0.3929 -0.0000 0.9196
vn 0.9281 -0.0000 0.3724
vn 0.9196 -0.0000 -0.3929
vn 0.3405 0.9126 -0.2264
vn 0.2044 0.8540 0.4784
vn -0.3405 0.9126 0.2264
vn -0.2044 0.8540 -0.4784
vn 0.1971 0.8484 -0.4913
vn -0.0000 0.5559 -0.8313
vn 0.3424 0.9130 0.2219
vn 0.4405 0.8977 -0.0000
vn -0.3424 0.9130 -0.2219
vn -0.4405 0.8977 -0.0000
vn -0.1971 0.8484 0.4913
vn -0.0000 0.5559 0.8313
vn 0.5351 0.6502 -0.5394
vn 0.5351 0.6501 0.5394
vn -0.5351 0.6502 -0.5394
vn -0.5351 0.6502 0.5394
vn 0.8487 0.5289 -0.0000
vn -0.0000 0.5062 -0.8624
vn -0.8487 0.5289 -0.0000
vn -0.0000 0.5062 0.8624
vn -0.0000 -0.7120 -0.7021
vn -0.5781 -0.5759 -0.5780
vn -0.7021 -0.7120 -0.0000
vn 0.5781 -0.5759 -0.5781
vn 0.7021 -0.7120 -0.0000
vn -0.5781 -0.5760 0.5780
vn -0.0000 -0.7121 0.7021
vn 0.5781 -0.5759 0.5780
vn -0.0000 -1.0000 -0.0000
vn 0.7071 -0.0000 -0.7071
vn 0.7071 -0.0000 0.7071
vn -0.7071 -0.0000 -0.7071
vn -0.7072 -0.0000 0.7071
vn -0.0000 -0.0000 -1.0000
vn -1.0000 -0.0000 -0.0000
vn 1.0000 -0.0000 -0.0000
vn -0.0000 -0.0000 1.0000
vn -0.0000 1.0000 -0.0000
vn 0.3724 -0.0000 -0.9281
vt 0.523911 0.610712
vt 0.524052 0.610721
vt 0.523651 0.611655
vt 0.523911 0.610070
vt 0.523981 0.610712
vt 0.523653 0.611012
vt 0.523981 0.610070
vt 0.524116 0.610070
vt 0.523810 0.611020
vt 0.524116 0.610712
vt 0.524052 0.611364
vt 0.523809 0.611662
vt 0.524052 0.611041
vt 0.523729 0.611791
vt 0.524116 0.610392
vt 0.523842 0.611342
vt 0.523981 0.610389
vt 0.523732 0.610883
vt 0.523911 0.610389
vt 0.523619 0.611332
vt 0.523977 0.610712
vt 0.524118 0.610721
vt 0.523977 0.610389
vt 0.523977 0.610070
vt 0.524046 0.610712
vt 0.524046 0.610389
vt 0.524050 0.610070
vt 0.524050 0.610392
vt 0.524050 0.610712
vt 0.524118 0.611364
vt 0.524118 0.611041
vt 0.528873 0.924090
vt 0.530453 0.924780
vt 0.530885 0.923916
vt 0.530517 0.924780
vt 0.523554 0.612385
vt 0.530506 0.924689
vt 0.528820 0.924147
vt 0.523607 0.612605
vt 0.530570 0.924689
vt 0.530922 0.924780
vt 0.528340 0.924090
vt 0.530986 0.924780
vt 0.529127 0.926532
vt 0.523908 0.612385
vt 0.530933 0.924689
vt 0.528394 0.924147
vt 0.523855 0.612605
vt 0.530869 0.924689
vt 0.530367 0.924780
vt 0.528873 0.924824
vt 0.530432 0.924780
vt 0.528715 0.923916
vt 0.523554 0.610290
vt 0.530378 0.924689
vt 0.528820 0.924767
vt 0.523607 0.610070
vt 0.530314 0.924689
vt 0.528340 0.924824
vt 0.529898 0.924780
vt 0.528393 0.926532
vt 0.529963 0.924780
vt 0.523908 0.610290
vt 0.529952 0.924689
vt 0.528394 0.924767
vt 0.523855 0.610070
vt 0.530016 0.924689
vt 0.530368 0.926532
vt 0.528953 0.924832
vt 0.528890 0.924831
vt 0.530432 0.926470
vt 0.528715 0.928913
vt 0.530367 0.926470
vt 0.530516 0.926532
vt 0.528953 0.924096
vt 0.528890 0.924097
vt 0.530453 0.926470
vt 0.530885 0.928913
vt 0.530517 0.926470
vt 0.529962 0.926532
vt 0.529360 0.924832
vt 0.529963 0.926470
vt 0.529423 0.924831
vt 0.529898 0.926470
vt 0.528393 0.924842
vt 0.530923 0.926532
vt 0.529360 0.924096
vt 0.529423 0.924097
vt 0.530986 0.926470
vt 0.529127 0.924842
vt 0.530922 0.926470
vt 0.528468 0.926457
vt 0.515303 0.424791
vt 0.529052 0.926457
vt 0.514551 0.424791
vt 0.528468 0.925081
vt 0.515303 0.426562
vt 0.529052 0.925081
vt 0.514551 0.426562
vt 0.515215 0.424879
vt 0.865179 0.230886
vt 0.514640 0.424879
vt 0.865489 0.230886
vt 0.515215 0.426473
vt 0.865179 0.230025
vt 0.865489 0.230025
vt 0.514640 0.426473
vt 0.528468 0.925834
vt 0.686276 0.495444
vt 0.515303 0.425593
vt 0.528468 0.925704
vt 0.686215 0.495444
vt 0.515303 0.425760
vt 0.686276 0.495424
vt 0.515215 0.425597
vt 0.865179 0.230498
vt 0.686215 0.495424
vt 0.515215 0.425756
vt 0.865179 0.230412
vt 0.686276 0.495188
vt 0.514640 0.425597
vt 0.865489 0.230498
vt 0.686215 0.495188
vt 0.865489 0.230412
vt 0.514640 0.425756
vt 0.529052 0.925704
vt 0.686215 0.495168
vt 0.514551 0.425760
vt 0.529052 0.925834
vt 0.686276 0.495168
vt 0.514551 0.425593
vt 0.865179 0.230886
vt 0.529851 0.928044
vt 0.865489 0.230886
vt 0.530020 0.928050
vt 0.865179 0.230498
vt 0.529857 0.927836
vt 0.865489 0.230498
vt 0.530025 0.927843
vt 0.865489 0.230692
vt 0.530058 0.927948
vt 0.865334 0.230498
vt 0.529942 0.927796
vt 0.865179 0.230692
vt 0.529819 0.927939
vt 0.865334 0.230886
vt 0.529935 0.928090
vt 0.863063 0.778843
vt 0.863282 0.778872
vt 0.862761 0.778675
vt 0.862994 0.778870
vt 0.863214 0.778872
vt 0.862927 0.778841
vt 0.863143 0.778872
vt 0.862900 0.778773
vt 0.863075 0.778872
vt 0.862928 0.778705
vt 0.863008 0.778872
vt 0.862868 0.779067
vt 0.862997 0.778678
vt 0.862936 0.779067
vt 0.863064 0.778707
vt 0.863004 0.779067
vt 0.862896 0.778675
vt 0.863091 0.778775
vt 0.862828 0.778675
vt 0.863282 0.779067
vt 0.862761 0.778870
vt 0.863253 0.778512
vt 0.863214 0.779067
vt 0.863185 0.778484
vt 0.863143 0.779067
vt 0.863118 0.778513
vt 0.863075 0.779067
vt 0.863090 0.778581
vt 0.863008 0.779067
vt 0.862868 0.778872
vt 0.863119 0.778649
vt 0.862936 0.778872
vt 0.863187 0.778676
vt 0.863004 0.778872
vt 0.862896 0.778870
vt 0.863255 0.778647
vt 0.862828 0.778870
vt 0.863282 0.778579
s 1
usemtl Material
f 1/1/1 8/19/1 10/23/1 9/21/1
f 8/19/2 2/4/2 11/24/2 10/23/2
f 2/5/3 7/17/3 12/26/3 11/25/3
f 7/17/4 3/7/4 13/27/4 12/26/4
f 3/8/5 6/15/5 14/28/5 13/27/5
f 6/15/6 4/10/6 15/29/6 14/28/6
f 4/11/7 5/13/7 16/31/7 15/30/7
f 5/13/8 1/2/8 9/22/8 16/31/8
f 5/14/9 20/39/9 19/36/9 1/3/9
f 6/16/10 23/45/10 4/12/10
f 7/18/11 32/66/11 31/63/11 3/9/11
f 8/20/12 27/54/12 2/6/12
f 19/36/13 8/20/13 1/3/13
f 19/36/14 27/54/14 8/20/14
f 23/45/15 24/48/15 5/14/15 4/12/15
f 24/48/16 20/39/16 5/14/16
f 27/54/17 28/57/17 7/18/17 2/6/17
f 28/57/18 32/66/18 7/18/18
f 31/63/19 6/16/19 3/9/19
f 31/63/20 23/45/20 6/16/20
f 18/35/21 17/33/21 19/37/21 20/40/21
f 22/43/22 21/41/22 24/49/22 23/46/22
f 26/52/23 25/50/23 28/58/23 27/55/23
f 30/62/24 29/60/24 31/64/24 32/67/24
f 18/35/25 20/40/25 24/49/25 21/41/25
f 19/38/26 17/32/26 26/51/26 27/56/26
f 28/58/27 25/50/27 30/62/27 32/67/27
f 22/42/28 23/47/28 31/65/28 29/59/28
f 33/69/29 34/70/29 37/76/29 36/75/29
f 34/71/30 33/68/30 35/73/30
f 35/73/31 33/68/31 39/80/31 40/82/31
f 36/74/32 37/77/32 38/79/32
f 36/74/33 38/79/33 44/91/33 42/86/33
f 40/82/34 39/80/34 41/84/34
f 41/83/35 39/81/35 42/87/35 43/88/35
f 43/89/36 42/86/36 44/91/36
f 42/87/37 39/81/37 33/69/37 36/75/37
f 17/33/38 18/35/38 38/79/38 37/77/38
f 21/41/39 22/43/39 43/89/39 44/91/39
f 25/50/40 26/52/40 34/71/40 35/73/40
f 29/60/41 30/62/41 40/82/41 41/84/41
f 17/34/42 37/78/42 34/72/42 26/53/42
f 25/50/43 35/73/43 40/82/43 30/62/43
f 21/41/44 44/91/44 38/79/44 18/35/44
f 22/44/45 29/61/45 45/92/45 46/94/45
f 41/85/45 47/96/45 29/61/45
f 47/96/45 54/111/45 29/61/45
f 54/111/45 53/108/45 29/61/45
f 29/61/45 53/108/45 45/92/45
f 41/85/45 43/90/45 48/98/45 47/96/45
f 43/90/45 22/44/45 48/98/45
f 48/98/45 22/44/45 59/126/45
f 59/126/45 22/44/45 60/129/45
f 22/44/45 46/94/45 60/129/45
f 46/95/45 45/93/45 49/100/45 50/102/45
f 47/97/45 48/99/45 52/107/45 51/104/45
f 53/109/45 54/112/45 56/117/45 55/114/45
f 55/114/45 56/117/45 58/123/45 57/120/45
f 57/120/45 58/123/45 59/127/45 60/130/45
f 45/93/45 53/110/45 55/115/45 49/100/45
f 57/121/45 60/131/45 46/95/45 50/102/45
f 56/118/45 54/113/45 47/97/45 51/104/45
f 58/124/45 56/119/45 51/105/45 52/106/45
f 48/99/45 59/128/45 58/125/45 52/107/45
f 50/103/45 49/101/45 68/146/45
f 49/101/45 55/116/45 67/144/45
f 55/116/45 57/122/45 66/142/45
f 57/122/45 50/103/45 65/140/45
f 65/140/45 50/103/45 62/134/45
f 57/122/45 65/140/45 64/138/45
f 66/142/45 57/122/45 64/138/45
f 55/116/45 66/142/45 63/136/45
f 67/144/45 55/116/45 63/136/45
f 49/101/45 67/144/45 61/132/45
f 68/146/45 49/101/45 61/132/45
f 50/103/45 68/146/45 62/134/45
f 62/135/45 68/147/45 61/133/45 67/145/45 63/137/45 66/143/45 64/139/45 65/141/45
f 69/148/46 70/151/46 71/153/46 72/155/46 73/157/46 74/160/46 75/162/46 76/165/46
f 77/167/47 78/170/47 70/152/47 69/149/47
f 78/170/2 79/172/2 71/154/2 70/152/2
f 79/172/3 80/174/3 72/156/3 71/154/3
f 80/174/4 81/176/4 73/158/4 72/156/4
f 81/177/5 82/179/5 74/161/5 73/159/5
f 82/179/6 83/181/6 75/163/6 74/161/6
f 83/182/7 84/184/7 76/166/7 75/164/7
f 84/184/8 77/168/8 69/150/8 76/166/8
f 79/173/37 78/171/37 77/169/37 84/185/37 83/183/37 82/180/37 81/178/37 80/175/37
