# Blender 3.3.1
# www.blender.org
mtllib peach_001.mtl
o peach_001
v 0.001600 0.004786 0.026112
v 0.001606 0.019698 0.039863
v -0.037780 0.019698 0.001983
v -0.021136 0.005208 0.001983
v 0.001607 0.000066 0.001401
v 0.001622 0.020452 -0.040593
v 0.001619 0.006257 -0.023720
v 0.040991 0.019698 0.001983
v 0.024347 0.005208 0.001983
v 0.023955 0.039495 -0.039203
v 0.039717 0.039495 -0.022718
v 0.046577 0.039495 0.001566
v 0.041322 0.039495 0.025278
v 0.024847 0.039495 0.038661
v -0.018295 0.007799 0.023085
v -0.018062 0.022374 0.036700
v -0.034809 0.022176 0.023085
v -0.017287 0.023034 -0.037199
v -0.017554 0.008955 -0.020043
v -0.033463 0.022808 -0.020054
v 0.036696 0.022808 -0.020054
v 0.020787 0.008955 -0.020043
v 0.020531 0.023034 -0.037199
v 0.021273 0.022374 0.036700
v 0.021495 0.007799 0.023085
v 0.038010 0.022176 0.023085
v -0.037233 0.034300 0.025204
v -0.034930 0.039495 0.024835
v -0.042171 0.034377 0.001590
v -0.039976 0.039495 0.001653
v -0.020226 0.034359 0.039022
v -0.018531 0.039495 0.038189
v 0.002917 0.039495 0.039919
v 0.001613 0.034446 0.040932
v -0.019362 0.034559 -0.039631
v -0.017724 0.039495 -0.038753
v 0.001622 0.034559 -0.044797
v 0.002898 0.039495 -0.043960
v -0.035611 0.034514 -0.022707
v -0.033367 0.039495 -0.022491
v 0.021399 0.041213 -0.012205
v 0.013565 0.041213 -0.020397
v 0.003100 0.041213 -0.022761
v -0.007148 0.041213 -0.020174
v -0.014922 0.041213 -0.012092
v -0.018207 0.041213 -0.000093
v -0.015699 0.041213 0.011428
v -0.007549 0.041213 0.018064
v 0.003156 0.041213 0.019455
v 0.012892 0.041213 0.018235
v 0.022196 0.041213 0.011648
v 0.024808 0.041213 -0.000136
v 0.018589 0.045593 -0.005202
v 0.007186 0.045593 -0.017098
v -0.007767 0.045593 -0.012893
v -0.012336 0.045593 0.003938
v -0.000961 0.045593 0.013841
v 0.014728 0.045593 0.011123
v 0.010685 0.047917 -0.009408
v 0.000528 0.047917 -0.012098
v -0.007044 0.047917 -0.004092
v -0.004471 0.047917 0.006759
v 0.006039 0.047917 0.008772
v 0.013820 0.047917 0.002078
v 0.003267 0.050187 -0.001440
vn -0.1944 -0.9667 0.1663
vn -0.2079 -0.6645 0.7178
vn -0.6461 -0.7422 0.1781
vn -0.5081 -0.5836 0.6334
vn -0.2199 -0.7495 -0.6245
vn -0.2007 -0.9554 -0.2167
vn -0.6392 -0.7342 -0.2288
vn -0.5556 -0.6385 -0.5326
vn 0.9395 -0.2421 -0.2425
vn 0.6393 -0.7343 -0.2282
vn 0.2007 -0.9554 -0.2165
vn 0.2199 -0.7495 -0.6244
vn 0.2457 -0.2193 -0.9442
vn 0.7048 -0.2315 -0.6706
vn 0.5557 -0.6386 -0.5323
vn 0.1443 -0.1097 0.9834
vn 0.2079 -0.6646 0.7177
vn 0.1945 -0.9667 0.1664
vn 0.6461 -0.7421 0.1784
vn 0.9530 -0.2375 0.1883
vn 0.6153 -0.2145 0.7585
vn 0.5082 -0.5838 0.6332
vn -0.0825 0.2013 0.9761
vn -0.1285 -0.1350 0.9825
vn -0.6088 -0.2543 0.7515
vn -0.9502 -0.2533 0.1817
vn -0.2186 -0.2611 -0.9402
vn -0.9360 -0.2594 -0.2379
vn -0.6960 -0.2720 -0.6645
vn 0.0563 0.1824 0.9816
vn 0.2191 0.1078 -0.9697
vn -0.8975 0.3971 0.1921
vn -0.8863 0.3962 -0.2398
vn -0.5987 0.3173 0.7354
vn -0.2352 0.2333 -0.9435
vn -0.6789 0.3377 -0.6520
vn 0.0603 0.9965 -0.0577
vn 0.0183 0.9966 -0.0809
vn -0.0203 0.9965 -0.0806
vn -0.0602 0.9965 -0.0579
vn -0.0804 0.9965 -0.0220
vn -0.0773 0.9969 0.0168
vn -0.0480 0.9971 0.0589
vn -0.0080 0.9966 0.0822
vn 0.0064 0.9966 0.0819
vn 0.0457 0.9972 0.0589
vn 0.0773 0.9969 0.0171
vn 0.0804 0.9965 -0.0227
vn 0.3878 0.8436 -0.3714
vn 0.1515 0.7260 -0.6708
vn -0.1424 0.8370 -0.5283
vn -0.4969 0.7243 -0.4780
vn -0.5275 0.8373 -0.1437
vn -0.6527 0.7441 0.1421
vn -0.3201 0.8688 0.3778
vn -0.0846 0.7546 0.6507
vn 0.0859 0.8278 0.5544
vn 0.3920 0.7347 0.5537
vn 0.5016 0.8574 0.1155
vn 0.6630 0.7248 -0.1873
vn 0.4615 0.7690 -0.4424
vn 0.0857 0.9423 -0.3237
vn -0.1654 0.7916 -0.5882
vn -0.2422 0.9428 -0.2290
vn -0.5905 0.7910 -0.1603
vn -0.3064 0.9491 0.0727
vn -0.3990 0.7942 0.4583
vn -0.0651 0.9381 0.3401
vn 0.0891 0.8531 0.5141
vn 0.1942 0.9546 0.2257
vn 0.6002 0.7872 0.1419
vn 0.3240 0.9419 -0.0884
vn 0.0589 0.9732 -0.2225
vn -0.1721 0.9715 -0.1628
vn -0.2280 0.9722 0.0541
vn -0.0437 0.9727 0.2281
vn 0.1509 0.9729 0.1754
vn 0.2299 0.9712 -0.0627
vt 0.642593 0.432167
vt 0.642529 0.432282
vt 0.642377 0.432384
vt 0.642511 0.432239
vt 0.642701 0.432172
vt 0.642869 0.432426
vt 0.642803 0.432274
vt 0.643038 0.432316
vt 0.642891 0.432196
vt 0.643048 0.432576
vt 0.605934 0.334401
vt 0.643122 0.432542
vt 0.604897 0.333410
vt 0.643092 0.432501
vt 0.603370 0.332978
vt 0.642949 0.432467
vt 0.601879 0.333309
vt 0.642741 0.432458
vt 0.601037 0.334345
vt 0.642439 0.432221
vt 0.642375 0.432332
vt 0.642301 0.432369
vt 0.642705 0.432458
vt 0.642634 0.432308
vt 0.642508 0.432442
vt 0.643084 0.432387
vt 0.642947 0.432275
vt 0.643010 0.432429
vt 0.642717 0.432296
vt 0.642779 0.432181
vt 0.642927 0.432304
vt 0.642270 0.432480
vt 0.642290 0.432527
vt 0.601907 0.338104
vt 0.642342 0.432520
vt 0.642359 0.432564
vt 0.603365 0.338422
vt 0.642343 0.432445
vt 0.642361 0.432494
vt 0.601067 0.337073
vt 0.642539 0.432474
vt 0.600958 0.335724
vt 0.642523 0.432424
vt 0.642699 0.432562
vt 0.642708 0.432603
vt 0.605906 0.337022
vt 0.642885 0.432555
vt 0.642892 0.432597
vt 0.606233 0.335725
vt 0.642502 0.432550
vt 0.642518 0.432592
vt 0.604883 0.338006
vt 0.604236 0.334562
vt 0.781789 0.673512
vt 0.604751 0.335054
vt 0.780695 0.674869
vt 0.604900 0.335712
vt 0.779235 0.675260
vt 0.604737 0.336357
vt 0.777804 0.674832
vt 0.604229 0.336846
vt 0.776719 0.673494
vt 0.603475 0.337052
vt 0.776261 0.671507
vt 0.602750 0.336895
vt 0.776611 0.669600
vt 0.602333 0.336382
vt 0.777749 0.668501
vt 0.602245 0.335709
vt 0.779236 0.668359
vt 0.602322 0.335097
vt 0.780757 0.668462
vt 0.602736 0.334511
vt 0.781900 0.669563
vt 0.603477 0.334347
vt 0.782264 0.671514
vt 0.781397 0.672353
vt 0.779805 0.674322
vt 0.777718 0.673626
vt 0.777080 0.670840
vt 0.778668 0.669200
vt 0.780858 0.669650
vt 0.780293 0.673049
vt 0.778876 0.673495
vt 0.777819 0.672169
vt 0.778178 0.670373
vt 0.779645 0.670040
vt 0.780731 0.671148
vt 0.779258 0.671730
s 1
usemtl Material
f 4/4/1 5/5/1 1/1/1 15/20/1
f 15/20/2 1/1/2 2/2/2 16/21/2
f 17/22/3 3/3/3 4/4/3 15/20/3
f 15/20/4 16/21/4 17/22/4
f 18/23/5 6/6/5 7/7/5 19/24/5
f 7/7/6 5/5/6 4/4/6 19/24/6
f 19/24/7 4/4/7 3/3/7 20/25/7
f 18/23/8 19/24/8 20/25/8
f 11/12/9 12/14/9 8/8/9 21/26/9
f 21/26/10 8/8/10 9/9/10 22/27/10
f 9/9/11 5/5/11 7/7/11 22/27/11
f 22/27/12 7/7/12 6/6/12 23/28/12
f 6/6/13 37/47/13 10/10/13 23/28/13
f 23/28/14 10/10/14 11/12/14 21/26/14
f 21/26/15 22/27/15 23/28/15
f 14/18/16 34/43/16 2/2/16 24/29/16
f 24/29/17 2/2/17 1/1/17 25/30/17
f 1/1/18 5/5/18 9/9/18 25/30/18
f 25/30/19 9/9/19 8/8/19 26/31/19
f 8/8/20 12/14/20 13/16/20 26/31/20
f 26/31/21 13/16/21 14/18/21 24/29/21
f 24/29/22 25/30/22 26/31/22
f 32/39/23 31/38/23 34/43/23 33/41/23
f 2/2/24 34/43/24 31/38/24 16/21/24
f 16/21/25 31/38/25 27/32/25 17/22/25
f 27/32/26 29/35/26 3/3/26 17/22/26
f 35/44/27 37/47/27 6/6/27 18/23/27
f 3/3/28 29/35/28 39/50/28 20/25/28
f 20/25/29 39/50/29 35/44/29 18/23/29
f 14/18/30 33/41/30 34/43/30
f 10/10/31 37/47/31 38/48/31
f 27/32/32 28/33/32 30/36/32 29/35/32
f 29/35/33 30/36/33 40/51/33 39/50/33
f 28/33/34 27/32/34 31/38/34 32/39/34
f 35/44/35 36/45/35 38/48/35 37/47/35
f 36/45/36 35/44/36 39/50/36 40/51/36
f 11/13/37 10/11/37 42/55/37 41/53/37
f 10/11/38 38/49/38 43/57/38 42/55/38
f 38/49/39 36/46/39 44/59/39 43/57/39
f 36/46/40 40/52/40 45/61/40 44/59/40
f 40/52/41 30/37/41 46/63/41 45/61/41
f 30/37/42 28/34/42 47/65/42 46/63/42
f 28/34/43 32/40/43 48/67/43 47/65/43
f 32/40/44 33/42/44 49/69/44 48/67/44
f 33/42/45 14/19/45 50/71/45 49/69/45
f 14/19/46 13/17/46 51/73/46 50/71/46
f 13/17/47 12/15/47 52/75/47 51/73/47
f 12/15/48 11/13/48 41/53/48 52/75/48
f 41/54/49 42/56/49 54/78/49 53/77/49
f 42/56/50 43/58/50 54/78/50
f 43/58/51 44/60/51 55/79/51 54/78/51
f 44/60/52 45/62/52 55/79/52
f 45/62/53 46/64/53 56/80/53 55/79/53
f 46/64/54 47/66/54 56/80/54
f 47/66/55 48/68/55 57/81/55 56/80/55
f 48/68/56 49/70/56 57/81/56
f 49/70/57 50/72/57 58/82/57 57/81/57
f 50/72/58 51/74/58 58/82/58
f 51/74/59 52/76/59 53/77/59 58/82/59
f 52/76/60 41/54/60 53/77/60
f 53/77/61 54/78/61 59/83/61
f 54/78/62 60/84/62 59/83/62
f 54/78/63 55/79/63 60/84/63
f 55/79/64 61/85/64 60/84/64
f 55/79/65 56/80/65 61/85/65
f 56/80/66 62/86/66 61/85/66
f 56/80/67 57/81/67 62/86/67
f 57/81/68 63/87/68 62/86/68
f 57/81/69 58/82/69 63/87/69
f 58/82/70 64/88/70 63/87/70
f 58/82/71 53/77/71 64/88/71
f 53/77/72 59/83/72 64/88/72
f 59/83/73 60/84/73 65/89/73
f 60/84/74 61/85/74 65/89/74
f 61/85/75 62/86/75 65/89/75
f 62/86/76 63/87/76 65/89/76
f 63/87/77 64/88/77 65/89/77
f 64/88/78 59/83/78 65/89/78
