# Blender 3.3.1
# www.blender.org
mtllib Plate_001.mtl
o Plate_001
v 0.069399 0.000067 -0.040068
v 0.040067 0.000067 -0.069399
v 0.000000 0.000067 -0.080135
v -0.040067 0.000067 -0.069399
v -0.069398 0.000067 -0.040068
v -0.080134 0.000067 -0.000000
v -0.069398 0.000067 0.040067
v -0.040067 0.000067 0.069398
v 0.000000 0.000067 0.080134
v 0.040067 0.000067 0.069398
v 0.069399 0.000067 0.040067
v 0.080135 0.000067 -0.000000
v 0.100326 0.016805 -0.057924
v 0.057924 0.016805 -0.100327
v 0.000000 0.016805 -0.115847
v -0.057923 0.016805 -0.100327
v -0.100326 0.016805 -0.057924
v -0.115846 0.016805 -0.000000
v -0.100326 0.016805 0.057922
v -0.057923 0.016805 0.100325
v 0.000000 0.016805 0.115846
v 0.057924 0.016805 0.100325
v 0.100326 0.016805 0.057922
v 0.115847 0.016805 -0.000000
v 0.098208 0.019981 -0.056701
v 0.056700 0.019981 -0.098208
v 0.000000 0.019981 -0.113401
v -0.056700 0.019981 -0.098208
v -0.098207 0.019981 -0.056701
v -0.113400 0.019981 -0.000000
v -0.098207 0.019981 0.056699
v -0.056700 0.019981 0.098207
v 0.000000 0.019981 0.113399
v 0.056700 0.019981 0.098207
v 0.098208 0.019981 0.056699
v 0.113400 0.019981 -0.000000
v 0.104064 0.014289 -0.000000
v 0.083691 0.008597 -0.000000
v 0.072479 0.008597 -0.041846
v 0.090122 0.014289 -0.052033
v 0.041846 0.008598 -0.072480
v 0.052032 0.014289 -0.090123
v 0.000000 0.008598 -0.083692
v 0.000000 0.014289 -0.104065
v -0.041845 0.008598 -0.072480
v -0.052032 0.014289 -0.090123
v -0.072478 0.008597 -0.041846
v -0.090122 0.014289 -0.052033
v -0.083691 0.008597 -0.000000
v -0.104064 0.014289 -0.000000
v -0.072478 0.008597 0.041845
v -0.090122 0.014289 0.052031
v -0.041845 0.008597 0.072478
v -0.052032 0.014289 0.090121
v 0.000000 0.008597 0.083690
v 0.000000 0.014289 0.104063
v 0.041846 0.008597 0.072478
v 0.052032 0.014289 0.090121
v 0.072479 0.008597 0.041845
v 0.090122 0.014289 0.052031
vn 0.3087 -0.8997 -0.3087
vn 0.1130 -0.8997 -0.4217
vn -0.1130 -0.8997 -0.4217
vn -0.3087 -0.8997 -0.3087
vn -0.4217 -0.8997 -0.1130
vn -0.4217 -0.8997 0.1130
vn -0.3087 -0.8997 0.3087
vn -0.1130 -0.8997 0.4217
vn 0.1130 -0.8997 0.4217
vn 0.3087 -0.8997 0.3087
vn 0.4217 -0.8997 0.1130
vn 0.4217 -0.8997 -0.1130
vn -0.0000 -1.0000 -0.0000
vn 0.7750 0.5969 -0.2077
vn 0.5673 0.5969 -0.5673
vn 0.2077 0.5969 -0.7750
vn -0.2077 0.5969 -0.7750
vn -0.5673 0.5969 -0.5673
vn -0.7750 0.5969 -0.2077
vn -0.7750 0.5969 0.2077
vn -0.5673 0.5969 0.5673
vn -0.2076 0.5969 0.7749
vn 0.2076 0.5969 0.7749
vn 0.5673 0.5969 0.5673
vn 0.7750 0.5969 0.2077
vn -0.2684 0.9606 -0.0719
vn -0.2684 0.9606 0.0719
vn -0.1965 0.9606 0.1965
vn -0.0719 0.9606 0.2684
vn 0.0719 0.9606 0.2684
vn 0.1965 0.9606 0.1965
vn 0.2684 0.9606 0.0719
vn 0.2684 0.9606 -0.0719
vn 0.1965 0.9606 -0.1965
vn 0.0719 0.9606 -0.2684
vn -0.0719 0.9606 -0.2684
vn -0.1965 0.9606 -0.1965
vn -0.0000 1.0000 -0.0000
vn -0.5156 0.8456 0.1382
vn -0.3774 0.8456 0.3774
vn -0.1382 0.8456 0.5156
vn 0.1382 0.8456 0.5156
vn 0.3774 0.8456 0.3774
vn 0.5156 0.8456 0.1382
vn 0.5156 0.8456 -0.1382
vn 0.3774 0.8456 -0.3774
vn 0.1382 0.8456 -0.5156
vn -0.1381 0.8456 -0.5156
vn -0.3774 0.8456 -0.3774
vn -0.5156 0.8456 -0.1382
vt 0.852777 0.115273
vt 0.853117 0.115273
vt 0.853131 0.114955
vt 0.852805 0.115273
vt 0.853053 0.114877
vt 0.852834 0.115273
vt 0.852947 0.114849
vt 0.852862 0.115273
vt 0.852841 0.114877
vt 0.852890 0.115273
vt 0.852763 0.114955
vt 0.852919 0.115273
vt 0.852735 0.115061
vt 0.852947 0.115273
vt 0.852763 0.115167
vt 0.852975 0.115273
vt 0.852841 0.115245
vt 0.852947 0.115273
vt 0.853053 0.115243
vt 0.853060 0.115273
vt 0.853131 0.115167
vt 0.853088 0.115273
vt 0.853159 0.115061
vt 0.852777 0.115784
vt 0.853117 0.115784
vt 0.853131 0.116101
vt 0.852805 0.115784
vt 0.853053 0.116178
vt 0.852834 0.115784
vt 0.852947 0.116207
vt 0.852862 0.115784
vt 0.852841 0.116178
vt 0.852890 0.115784
vt 0.852763 0.116101
vt 0.852919 0.115784
vt 0.852735 0.115995
vt 0.852947 0.115784
vt 0.852763 0.115888
vt 0.852975 0.115784
vt 0.852841 0.115811
vt 0.852947 0.115782
vt 0.853053 0.115811
vt 0.853060 0.115784
vt 0.853131 0.115888
vt 0.853088 0.115784
vt 0.853159 0.115995
vt 0.853039 0.116043
vt 0.853000 0.116082
vt 0.852947 0.116096
vt 0.852894 0.116082
vt 0.852855 0.116043
vt 0.852841 0.115990
vt 0.852855 0.115937
vt 0.852894 0.115898
vt 0.852947 0.115884
vt 0.853000 0.115898
vt 0.853039 0.115937
vt 0.853053 0.115990
vt 0.853053 0.115990
vt 0.853041 0.115990
vt 0.853028 0.116037
vt 0.853039 0.116043
vt 0.852994 0.116071
vt 0.853000 0.116082
vt 0.852947 0.116084
vt 0.852947 0.116096
vt 0.852900 0.116071
vt 0.852894 0.116082
vt 0.852866 0.116037
vt 0.852855 0.116043
vt 0.852853 0.115990
vt 0.852841 0.115990
vt 0.852866 0.115943
vt 0.852855 0.115937
vt 0.852900 0.115909
vt 0.852894 0.115898
vt 0.852947 0.115897
vt 0.852947 0.115884
vt 0.852994 0.115909
vt 0.853000 0.115898
vt 0.853028 0.115943
vt 0.853039 0.115937
s 1
usemtl Material
f 1/1/1 2/4/1 14/27/1 13/24/1
f 2/4/2 3/6/2 15/29/2 14/27/2
f 3/6/3 4/8/3 16/31/3 15/29/3
f 4/8/4 5/10/4 17/33/4 16/31/4
f 5/10/5 6/12/5 18/35/5 17/33/5
f 6/12/6 7/14/6 19/37/6 18/35/6
f 7/14/7 8/16/7 20/39/7 19/37/7
f 8/16/8 9/18/8 21/41/8 20/39/8
f 9/18/9 10/19/9 22/42/9 21/41/9
f 10/19/10 11/20/10 23/43/10 22/42/10
f 11/20/11 12/22/11 24/45/11 23/43/11
f 12/22/12 1/2/12 13/25/12 24/45/12
f 2/5/13 1/3/13 10/19/13
f 3/7/13 2/5/13 10/19/13
f 4/9/13 3/7/13 10/19/13
f 5/11/13 4/9/13 10/19/13
f 6/13/13 5/11/13 10/19/13
f 7/15/13 6/13/13 10/19/13
f 8/17/13 7/15/13 10/19/13
f 9/18/13 8/17/13 10/19/13
f 12/23/13 11/21/13 10/19/13
f 1/3/13 12/23/13 10/19/13
f 24/46/14 13/26/14 25/47/14 36/58/14
f 13/26/15 14/28/15 26/48/15 25/47/15
f 14/28/16 15/30/16 27/49/16 26/48/16
f 15/30/17 16/32/17 28/50/17 27/49/17
f 16/32/18 17/34/18 29/51/18 28/50/18
f 17/34/19 18/36/19 30/52/19 29/51/19
f 18/36/20 19/38/20 31/53/20 30/52/20
f 19/38/21 20/40/21 32/54/21 31/53/21
f 20/40/22 21/41/22 33/55/22 32/54/22
f 21/41/23 22/42/23 34/56/23 33/55/23
f 22/42/24 23/44/24 35/57/24 34/56/24
f 23/44/25 24/46/25 36/58/25 35/57/25
f 37/59/26 38/60/26 59/81/26 60/82/26
f 38/60/27 37/59/27 40/62/27 39/61/27
f 39/61/28 40/62/28 42/64/28 41/63/28
f 41/63/29 42/64/29 44/66/29 43/65/29
f 43/65/30 44/66/30 46/68/30 45/67/30
f 45/67/31 46/68/31 48/70/31 47/69/31
f 47/69/32 48/70/32 50/72/32 49/71/32
f 49/71/33 50/72/33 52/74/33 51/73/33
f 51/73/34 52/74/34 54/76/34 53/75/34
f 53/75/35 54/76/35 56/78/35 55/77/35
f 55/77/36 56/78/36 58/80/36 57/79/36
f 57/79/37 58/80/37 60/82/37 59/81/37
f 38/60/38 39/61/38 41/63/38 43/65/38 45/67/38 47/69/38 49/71/38 51/73/38 53/75/38 55/77/38 57/79/38 59/81/38
f 36/58/39 25/47/39 40/62/39 37/59/39
f 25/47/40 26/48/40 42/64/40 40/62/40
f 26/48/41 27/49/41 44/66/41 42/64/41
f 27/49/42 28/50/42 46/68/42 44/66/42
f 28/50/43 29/51/43 48/70/43 46/68/43
f 29/51/44 30/52/44 50/72/44 48/70/44
f 30/52/45 31/53/45 52/74/45 50/72/45
f 31/53/46 32/54/46 54/76/46 52/74/46
f 32/54/47 33/55/47 56/78/47 54/76/47
f 33/55/48 34/56/48 58/80/48 56/78/48
f 34/56/49 35/57/49 60/82/49 58/80/49
f 35/57/50 36/58/50 37/59/50 60/82/50
