# Blender 3.3.1
# www.blender.org
mtllib sandwich_001.mtl
o sandwich_001
v 0.020703 0.019314 0.005771
v 0.019347 0.019668 0.001618
v 0.016636 0.020160 0.007171
v 0.015280 0.020514 0.003017
v 0.029636 0.017374 0.007952
v 0.032565 0.016779 0.005965
v 0.027702 0.017833 0.004964
v 0.030631 0.017238 0.002978
v 0.052113 0.012627 0.004757
v 0.047913 0.013536 0.003893
v 0.051253 0.012744 0.009054
v 0.047054 0.013653 0.008189
v 0.033477 0.016749 -0.004676
v 0.037220 0.015939 -0.003906
v 0.034243 0.016645 -0.008505
v 0.037985 0.015835 -0.007735
v 0.019502 0.019852 -0.012435
v 0.023336 0.019004 -0.010488
v 0.021418 0.019504 -0.016361
v 0.025253 0.018655 -0.014414
v 0.038202 0.016020 -0.022717
v 0.037342 0.016137 -0.018420
v 0.042401 0.015111 -0.021853
v 0.041542 0.015228 -0.017556
v 0.049886 0.013341 -0.010672
v 0.048404 0.013610 -0.007636
v 0.052851 0.012685 -0.009166
v 0.051368 0.012954 -0.006130
v 0.040181 0.015057 0.012239
v 0.036570 0.015824 0.012473
v 0.040398 0.014954 0.015930
v 0.036787 0.015721 0.016164
v 0.016177 0.013639 0.016521
v 0.035284 0.009458 0.023207
v 0.053463 0.005720 0.014107
v 0.060065 0.004614 -0.005449
v 0.051223 0.006788 -0.024006
v 0.032116 0.010968 -0.030692
v 0.013937 0.014707 -0.021592
v 0.007335 0.015813 -0.002036
v 0.017375 0.019251 0.016607
v 0.036481 0.015070 0.023294
v 0.054660 0.011331 0.014194
v 0.061262 0.010225 -0.005362
v 0.052420 0.012399 -0.023919
v 0.033313 0.016580 -0.030606
v 0.015134 0.020318 -0.021505
v 0.008532 0.021425 -0.001949
v -0.072914 -0.000606 -0.019373
v -0.067197 -0.000585 -0.028673
v -0.062165 -0.000512 0.014396
v -0.043483 -0.000462 -0.032795
v 0.060334 0.000103 -0.028673
v 0.036606 -0.000030 -0.032795
v 0.066057 0.000144 -0.019373
v 0.062242 0.000135 -0.003695
v 0.055305 0.000122 0.014428
v -0.003441 -0.000247 -0.033529
v 0.044129 0.000079 0.029762
v -0.039614 -0.000366 0.036717
v -0.046695 -0.000408 0.033079
v 0.025007 -0.000021 0.033465
v 0.001772 -0.000136 0.042507
v 0.010651 -0.000090 0.040751
v -0.006914 -0.000198 0.028879
v -0.020694 -0.000271 0.029655
v -0.032427 -0.000331 0.033370
v -0.065027 -0.000572 -0.026717
v -0.069955 -0.000590 -0.018699
v -0.042531 -0.000455 -0.030627
v -0.003441 -0.000245 -0.031343
v 0.035655 -0.000033 -0.030627
v 0.058165 0.000093 -0.026716
v 0.063101 0.000128 -0.018696
v 0.059571 0.000120 -0.003927
v 0.052833 0.000108 0.013576
v 0.042346 0.000067 0.027965
v 0.023965 -0.000029 0.031524
v 0.009898 -0.000097 0.038663
v 0.002338 -0.000136 0.040159
v -0.006098 -0.000196 0.026924
v -0.020598 -0.000273 0.027741
v -0.032349 -0.000333 0.031461
v -0.038846 -0.000365 0.034487
v -0.044910 -0.000401 0.031371
v -0.059705 -0.000500 0.013504
v -0.043599 0.011487 -0.032790
v 0.060470 0.008166 -0.028672
v 0.066213 0.007949 -0.019373
v 0.062400 0.008037 -0.003646
v 0.055475 0.008163 0.014660
v -0.003441 0.010214 -0.033539
v -0.045029 0.011280 0.034736
v 0.016359 0.009330 0.034620
v -0.004878 0.009973 0.043099
v 0.042488 0.008509 0.032247
v -0.030060 0.010822 0.030071
v -0.073248 0.012378 -0.019373
v -0.067468 0.012230 -0.028672
v -0.062492 0.011909 0.014844
v 0.036682 0.008937 -0.032792
v 0.001441 0.009776 0.042258
v -0.014789 0.010343 0.028382
v -0.003835 0.009949 0.040780
v -0.013728 0.010318 0.026090
v 0.000788 0.009804 0.040165
v 0.015747 0.009358 0.032505
v 0.041327 0.008554 0.030182
v 0.053560 0.008227 0.013617
v 0.060333 0.008105 -0.004285
v 0.063901 0.008021 -0.019005
v 0.059143 0.008201 -0.026708
v 0.036476 0.008935 -0.030634
v -0.003442 0.010206 -0.031378
v -0.043394 0.011472 -0.030633
v -0.066146 0.012180 -0.026707
v -0.070890 0.012302 -0.019074
v -0.060567 0.011852 0.013760
v -0.044331 0.011267 0.032255
v -0.030504 0.010844 0.027945
v -0.036738 0.015956 0.012339
v -0.040972 0.015956 0.011205
v -0.037873 0.015956 0.016573
v -0.042107 0.015956 0.015438
v -0.029860 0.015956 0.005935
v -0.029860 0.015956 0.002346
v -0.033448 0.015956 0.005935
v -0.033448 0.015956 0.002346
v -0.019801 0.015956 -0.014964
v -0.022900 0.015956 -0.011864
v -0.016701 0.015956 -0.011864
v -0.019801 0.015956 -0.008765
v -0.038224 0.015956 -0.004295
v -0.035462 0.015956 -0.007057
v -0.040986 0.015956 -0.007057
v -0.038225 0.015956 -0.009819
v -0.052613 0.015956 0.003329
v -0.048817 0.015956 0.001137
v -0.054804 0.015956 -0.000467
v -0.051008 0.015956 -0.002659
v -0.050606 0.015956 -0.018260
v -0.047507 0.015956 -0.015160
v -0.047507 0.015956 -0.021359
v -0.044408 0.015956 -0.018260
v -0.033938 0.015956 -0.021571
v -0.032243 0.015956 -0.018636
v -0.031003 0.015956 -0.023265
v -0.029308 0.015956 -0.020330
v -0.020312 0.015956 -0.000681
v -0.022161 0.015956 0.002523
v -0.017108 0.015956 0.001168
v -0.018958 0.015956 0.004372
v -0.029502 0.009625 0.021045
v -0.013103 0.009625 0.008461
v -0.010404 0.009625 -0.012032
v -0.022988 0.009625 -0.028431
v -0.043482 0.009625 -0.031129
v -0.059880 0.009625 -0.018546
v -0.062578 0.009625 0.001948
v -0.049995 0.009625 0.018347
v -0.029502 0.015363 0.021045
v -0.013103 0.015363 0.008461
v -0.010404 0.015363 -0.012032
v -0.022988 0.015363 -0.028431
v -0.043482 0.015363 -0.031129
v -0.059880 0.015363 -0.018546
v -0.062578 0.015363 0.001948
v -0.049995 0.015363 0.018347
v -0.007103 0.018870 0.013452
v -0.010286 0.019155 0.010452
v -0.010081 0.019250 0.016646
v -0.013263 0.019535 0.013645
v 0.001929 0.017854 0.011061
v 0.003609 0.017614 0.007899
v -0.001218 0.018160 0.009365
v 0.000462 0.017919 0.006203
v 0.020538 0.015596 -0.002597
v 0.016368 0.016068 -0.001332
v 0.021805 0.015539 0.001598
v 0.017635 0.016011 0.002864
v -0.000617 0.017882 -0.001906
v 0.003098 0.017461 -0.003034
v -0.001747 0.017932 -0.005645
v 0.001969 0.017512 -0.006773
v -0.016807 0.019619 -0.001989
v -0.012452 0.019149 -0.002127
v -0.016952 0.019552 -0.006370
v -0.012597 0.019081 -0.006507
v -0.004939 0.018002 -0.020062
v -0.003671 0.017945 -0.015866
v -0.000769 0.017530 -0.021327
v 0.000498 0.017473 -0.017132
v 0.011231 0.016358 -0.015100
v 0.011344 0.016411 -0.011713
v 0.014599 0.015995 -0.015206
v 0.014711 0.016047 -0.011819
v 0.013402 0.016596 0.009745
v 0.010279 0.016969 0.011693
v 0.015345 0.016447 0.012888
v 0.012223 0.016820 0.014837
v -0.005508 0.012543 0.024661
v 0.014768 0.010301 0.021326
v 0.026731 0.008698 0.004546
v 0.023372 0.008672 -0.015850
v 0.006660 0.010238 -0.027914
v -0.013616 0.012480 -0.024578
v -0.025578 0.014083 -0.007797
v -0.022220 0.014109 0.012598
v -0.004895 0.018247 0.024553
v 0.015381 0.016005 0.021218
v 0.027343 0.014402 0.004438
v 0.023985 0.014376 -0.015958
v 0.007273 0.015943 -0.028022
v -0.013003 0.018184 -0.024686
v -0.024965 0.019788 -0.007906
v -0.021607 0.019814 0.012490
vn 0.2087 0.9779 0.0151
vn -0.3194 0.0536 0.9461
vn 0.4278 -0.1052 0.8977
vn 0.9244 -0.2023 0.3235
vn 0.8795 -0.1809 -0.4402
vn 0.3194 -0.0536 -0.9461
vn -0.4278 0.1052 -0.8977
vn -0.9244 0.2023 -0.3235
vn -0.8795 0.1809 0.4403
vn 0.1687 0.0304 0.9852
vn 0.0185 -0.0005 -0.9998
vn 0.1300 -0.1260 0.9835
vn -0.7218 -0.5099 0.4680
vn 0.0054 -1.0000 0.0011
vn 0.0052 -1.0000 0.0008
vn 0.0054 -1.0000 0.0008
vn 0.0054 -1.0000 0.0012
vn 0.0054 -1.0000 0.0013
vn 0.0050 -1.0000 0.0012
vn 0.0055 -1.0000 0.0008
vn 0.0052 -1.0000 0.0010
vn 0.0054 -1.0000 0.0009
vn 0.0053 -1.0000 0.0012
vn 0.0055 -1.0000 0.0010
vn 0.0055 -1.0000 0.0011
vn 0.0056 -1.0000 0.0008
vn 0.0055 -1.0000 0.0014
vn 0.0056 -1.0000 0.0012
vn 0.0052 -1.0000 0.0011
vn 0.0055 -1.0000 0.0013
vn 0.0051 -1.0000 0.0012
vn 0.0055 -1.0000 0.0012
vn 0.0054 -1.0000 0.0014
vn 0.0053 -1.0000 0.0011
vn 0.0053 -1.0000 0.0013
vn 0.0052 -1.0000 0.0012
vn -0.8505 -0.0200 -0.5256
vn -0.1707 -0.0024 -0.9853
vn -0.9531 -0.0301 0.3013
vn -0.7605 -0.0144 0.6491
vn 0.1709 -0.0019 -0.9853
vn 0.8511 -0.0156 -0.5248
vn 0.9715 -0.0201 0.2360
vn 0.9343 -0.0255 0.3556
vn 0.8058 -0.0256 0.5917
vn -0.0185 -0.0003 -0.9998
vn -0.4559 -0.0609 0.8879
vn 0.0853 0.0717 0.9938
vn 0.2955 0.2128 0.9313
vn 0.3971 0.3303 0.8563
vn 0.4378 0.2889 0.8514
vn 0.0318 0.9995 0.0037
vn 0.0317 0.9995 0.0037
vn 0.0313 0.9995 0.0036
vn 0.0314 0.9995 0.0037
vn 0.0310 0.9995 0.0036
vn 0.0316 0.9995 0.0037
vn 0.0311 0.9995 0.0036
vn 0.0321 0.9995 0.0025
vn 0.0317 0.9995 0.0036
vn 0.0315 0.9995 0.0041
vn 0.0314 0.9995 0.0044
vn 0.0315 0.9995 0.0035
vn 0.0311 0.9995 0.0037
vn 0.0315 0.9995 0.0034
vn 0.0317 0.9995 0.0028
vn 0.0317 0.9995 0.0031
vn 0.0317 0.9995 0.0038
vn -0.0000 1.0000 -0.0000
vn 0.6088 -0.0000 0.7933
vn 0.9914 -0.0000 0.1305
vn 0.7934 -0.0000 -0.6088
vn 0.1305 -0.0000 -0.9914
vn -0.6088 -0.0000 -0.7933
vn -0.9914 -0.0000 -0.1305
vn -0.7934 -0.0000 0.6087
vn -0.1305 -0.0000 0.9914
vn 0.1068 0.9941 -0.0189
vn 0.1068 0.9941 -0.0188
vn 0.1625 0.0012 0.9867
vn 0.8085 -0.0758 0.5836
vn 0.9809 -0.1085 -0.1614
vn 0.5787 -0.0776 -0.8118
vn -0.1625 -0.0013 -0.9867
vn -0.8085 0.0758 -0.5836
vn -0.9809 0.1085 0.1614
vn -0.5787 0.0776 0.8118
vt 0.018181 0.161610
vt 0.022699 0.161610
vt 0.018181 0.166129
vt 0.022699 0.166129
vt 0.018181 0.161610
vt 0.022699 0.161610
vt 0.018181 0.166129
vt 0.022699 0.166129
vt 0.018181 0.161610
vt 0.022699 0.161610
vt 0.018181 0.166129
vt 0.022699 0.166129
vt 0.018181 0.161610
vt 0.022699 0.161610
vt 0.018181 0.166129
vt 0.022699 0.166129
vt 0.018181 0.161610
vt 0.022699 0.161610
vt 0.018181 0.166129
vt 0.022699 0.166129
vt 0.018181 0.161610
vt 0.022699 0.161610
vt 0.018181 0.166129
vt 0.022699 0.166129
vt 0.018181 0.161610
vt 0.022699 0.161610
vt 0.018181 0.166129
vt 0.022699 0.166129
vt 0.018181 0.161610
vt 0.022699 0.161610
vt 0.018181 0.166129
vt 0.022699 0.166129
vt 0.761876 0.398686
vt 0.765208 0.398686
vt 0.761876 0.404354
vt 0.761957 0.410022
vt 0.761957 0.404354
vt 0.761957 0.398686
vt 0.763582 0.410022
vt 0.763582 0.404354
vt 0.763582 0.398686
vt 0.765208 0.410022
vt 0.765208 0.404354
vt 0.760329 0.398686
vt 0.766755 0.398686
vt 0.036917 0.325825
vt 0.760329 0.404354
vt 0.032058 0.327837
vt 0.760329 0.410022
vt 0.763504 0.410022
vt 0.027200 0.325825
vt 0.763504 0.404354
vt 0.025187 0.320966
vt 0.763504 0.398686
vt 0.765130 0.410022
vt 0.027200 0.316107
vt 0.765130 0.404354
vt 0.032058 0.314095
vt 0.765130 0.398686
vt 0.766755 0.410022
vt 0.036917 0.316107
vt 0.766755 0.404354
vt 0.038929 0.320966
vt 0.642791 0.201784
vt 0.642493 0.272292
vt 0.642791 0.201997
vt 0.642421 0.272250
vt 0.642791 0.202184
vt 0.642737 0.272187
vt 0.642791 0.202878
vt 0.642376 0.272054
vt 0.642791 0.206734
vt 0.642341 0.271095
vt 0.642791 0.205852
vt 0.642324 0.271330
vt 0.642791 0.206946
vt 0.642412 0.271033
vt 0.642791 0.206781
vt 0.642530 0.271069
vt 0.642791 0.206547
vt 0.642693 0.271121
vt 0.642791 0.204365
vt 0.642345 0.271703
vt 0.642535 0.271415
vt 0.642791 0.206132
vt 0.642809 0.271214
vt 0.642791 0.203021
vt 0.642906 0.271976
vt 0.642535 0.271623
vt 0.642791 0.202758
vt 0.642877 0.272038
vt 0.642791 0.205422
vt 0.642535 0.271481
vt 0.642932 0.271610
vt 0.642535 0.272074
vt 0.642791 0.204558
vt 0.642924 0.271543
vt 0.642791 0.204888
vt 0.642535 0.271746
vt 0.642535 0.272070
vt 0.642791 0.204236
vt 0.642535 0.271624
vt 0.642791 0.203724
vt 0.642535 0.271626
vt 0.642791 0.203288
vt 0.642535 0.271631
vt 0.605231 0.144268
vt 0.642791 0.202030
vt 0.605117 0.144198
vt 0.642791 0.201843
vt 0.605281 0.144559
vt 0.642791 0.202883
vt 0.605290 0.145049
vt 0.642791 0.204365
vt 0.605281 0.145539
vt 0.642791 0.205847
vt 0.605231 0.145829
vt 0.642791 0.206701
vt 0.605117 0.145899
vt 0.642791 0.206888
vt 0.604943 0.145845
vt 0.642791 0.206730
vt 0.604703 0.145768
vt 0.642791 0.206499
vt 0.604516 0.145631
vt 0.642791 0.206101
vt 0.604470 0.145397
vt 0.642791 0.205404
vt 0.604381 0.145221
vt 0.642791 0.204871
vt 0.604360 0.145113
vt 0.642791 0.204584
vt 0.604526 0.145006
vt 0.642791 0.204264
vt 0.604517 0.144838
vt 0.642791 0.203714
vt 0.604472 0.144694
vt 0.642791 0.203269
vt 0.604430 0.144606
vt 0.642791 0.203022
vt 0.604475 0.144519
vt 0.642791 0.202792
vt 0.604704 0.144330
vt 0.642791 0.202231
vt 0.642379 0.272006
vt 0.642791 0.202395
vt 0.642342 0.271072
vt 0.642791 0.200809
vt 0.642414 0.271011
vt 0.642791 0.200722
vt 0.642531 0.271047
vt 0.642791 0.200780
vt 0.642694 0.271097
vt 0.642791 0.200885
vt 0.642348 0.271665
vt 0.642791 0.201783
vt 0.642891 0.271974
vt 0.642535 0.271671
vt 0.642791 0.202417
vt 0.642535 0.271442
vt 0.642535 0.271635
vt 0.642791 0.201481
vt 0.642936 0.271637
vt 0.642535 0.272108
vt 0.642791 0.201805
vt 0.642535 0.271439
vt 0.642833 0.271208
vt 0.642791 0.201083
vt 0.642535 0.271664
vt 0.642791 0.202189
vt 0.642494 0.272239
vt 0.642791 0.202847
vt 0.642423 0.272198
vt 0.642791 0.202759
vt 0.642740 0.272138
vt 0.642791 0.202683
vt 0.642326 0.271301
vt 0.642791 0.201172
vt 0.642930 0.271580
vt 0.642535 0.271912
vt 0.642791 0.201709
vt 0.642535 0.272106
vt 0.642535 0.271660
vt 0.642791 0.201956
vt 0.607380 0.145266
vt 0.642791 0.201789
vt 0.606955 0.144980
vt 0.642791 0.201940
vt 0.607355 0.145449
vt 0.642791 0.201719
vt 0.607135 0.145880
vt 0.642791 0.201491
vt 0.607066 0.146634
vt 0.642791 0.201101
vt 0.606558 0.147010
vt 0.642791 0.200914
vt 0.605987 0.147191
vt 0.642791 0.200811
vt 0.605575 0.147320
vt 0.642791 0.200757
vt 0.605307 0.147154
vt 0.642791 0.200829
vt 0.605188 0.146467
vt 0.642791 0.201175
vt 0.605166 0.145308
vt 0.642791 0.201783
vt 0.605188 0.144148
vt 0.642791 0.202392
vt 0.605307 0.143459
vt 0.642791 0.202739
vt 0.605575 0.143292
vt 0.642791 0.202811
vt 0.606564 0.143603
vt 0.642791 0.202654
vt 0.607138 0.144107
vt 0.642791 0.202406
vt 0.607003 0.144539
vt 0.642791 0.202196
vt 0.018181 0.161610
vt 0.022699 0.161610
vt 0.018181 0.166129
vt 0.022699 0.166129
vt 0.018181 0.161610
vt 0.022699 0.161610
vt 0.018181 0.166129
vt 0.022699 0.166129
vt 0.018181 0.161610
vt 0.022699 0.161610
vt 0.018181 0.166129
vt 0.022699 0.166129
vt 0.018181 0.161610
vt 0.022699 0.161610
vt 0.018181 0.166129
vt 0.022699 0.166129
vt 0.018181 0.161610
vt 0.022699 0.161610
vt 0.018181 0.166129
vt 0.022699 0.166129
vt 0.018181 0.161610
vt 0.022699 0.161610
vt 0.018181 0.166129
vt 0.022699 0.166129
vt 0.018181 0.161610
vt 0.022699 0.161610
vt 0.018181 0.166129
vt 0.022699 0.166129
vt 0.018181 0.161610
vt 0.022699 0.161610
vt 0.018181 0.166129
vt 0.022699 0.166129
vt 0.761876 0.398686
vt 0.765208 0.398686
vt 0.761876 0.404354
vt 0.761957 0.410022
vt 0.761957 0.404354
vt 0.761957 0.398686
vt 0.763582 0.410022
vt 0.763582 0.404354
vt 0.763582 0.398686
vt 0.765208 0.410022
vt 0.765208 0.404354
vt 0.760329 0.398686
vt 0.766755 0.398686
vt 0.036917 0.325825
vt 0.760329 0.404354
vt 0.032058 0.327837
vt 0.760329 0.410022
vt 0.763504 0.410022
vt 0.027200 0.325825
vt 0.763504 0.404354
vt 0.025187 0.320966
vt 0.763504 0.398686
vt 0.765130 0.410022
vt 0.027200 0.316107
vt 0.765130 0.404354
vt 0.032058 0.314095
vt 0.765130 0.398686
vt 0.766755 0.410022
vt 0.036917 0.316107
vt 0.766755 0.404354
vt 0.038929 0.320966
vt 0.018181 0.161610
vt 0.022699 0.161610
vt 0.018181 0.166129
vt 0.022699 0.166129
vt 0.018181 0.161610
vt 0.022699 0.161610
vt 0.018181 0.166129
vt 0.022699 0.166129
vt 0.018181 0.161610
vt 0.022699 0.161610
vt 0.018181 0.166129
vt 0.022699 0.166129
vt 0.018181 0.161610
vt 0.022699 0.161610
vt 0.018181 0.166129
vt 0.022699 0.166129
vt 0.018181 0.161610
vt 0.022699 0.161610
vt 0.018181 0.166129
vt 0.022699 0.166129
vt 0.018181 0.161610
vt 0.022699 0.161610
vt 0.018181 0.166129
vt 0.022699 0.166129
vt 0.018181 0.161610
vt 0.022699 0.161610
vt 0.018181 0.166129
vt 0.022699 0.166129
vt 0.018181 0.161610
vt 0.022699 0.161610
vt 0.018181 0.166129
vt 0.022699 0.166129
vt 0.761876 0.398686
vt 0.765208 0.398686
vt 0.761876 0.404354
vt 0.761957 0.410022
vt 0.761957 0.404354
vt 0.761957 0.398686
vt 0.763582 0.410022
vt 0.763582 0.404354
vt 0.763582 0.398686
vt 0.765208 0.410022
vt 0.765208 0.404354
vt 0.760329 0.398686
vt 0.766755 0.398686
vt 0.036917 0.325825
vt 0.760329 0.404354
vt 0.032058 0.327837
vt 0.760329 0.410022
vt 0.763504 0.410022
vt 0.027200 0.325825
vt 0.763504 0.404354
vt 0.025187 0.320966
vt 0.763504 0.398686
vt 0.765130 0.410022
vt 0.027200 0.316107
vt 0.765130 0.404354
vt 0.032058 0.314095
vt 0.765130 0.398686
vt 0.766755 0.410022
vt 0.036917 0.316107
vt 0.766755 0.404354
vt 0.038929 0.320966
s 1
usemtl Material
f 1/1/1 2/2/1 4/4/1 3/3/1
f 5/5/1 6/6/1 8/8/1 7/7/1
f 9/9/1 10/10/1 12/12/1 11/11/1
f 13/13/1 14/14/1 16/16/1 15/15/1
f 17/17/1 18/18/1 20/20/1 19/19/1
f 21/21/1 22/22/1 24/24/1 23/23/1
f 25/25/1 26/26/1 28/28/1 27/27/1
f 29/29/1 30/30/1 32/32/1 31/31/1
f 33/33/2 34/35/2 42/47/2 41/44/2
f 34/35/3 35/36/3 43/49/3 42/47/3
f 35/36/4 36/37/4 44/52/4 43/50/4
f 36/37/5 37/38/5 45/54/5 44/52/5
f 37/39/6 38/40/6 46/57/6 45/55/6
f 38/40/7 39/41/7 47/59/7 46/57/7
f 39/42/8 40/43/8 48/62/8 47/60/8
f 40/43/9 33/34/9 41/45/9 48/62/9
f 42/48/1 43/51/1 41/46/1
f 43/51/1 44/53/1 41/46/1
f 44/53/1 45/56/1 41/46/1
f 45/56/1 46/58/1 41/46/1
f 46/58/1 47/61/1 41/46/1
f 47/61/1 48/63/1 41/46/1
f 63/94/10 64/97/10 102/179/10 95/163/10
f 54/75/11 58/83/11 92/155/11 101/177/11
f 62/93/12 59/84/12 96/166/12 94/160/12
f 65/100/13 63/95/13 95/164/13 103/182/13
f 80/131/14 81/133/14 79/129/14
f 79/129/14 81/133/14 78/127/14
f 84/139/14 85/141/14 83/137/14
f 69/109/14 68/107/14 86/143/14
f 68/107/15 70/111/16 86/143/14
f 70/111/14 71/113/14 86/143/14
f 86/143/14 71/113/14 85/141/14
f 85/141/14 71/113/14 83/137/14
f 83/137/14 71/113/14 82/135/14
f 82/135/14 71/113/14 81/133/14
f 71/113/14 72/115/14 81/133/14
f 81/133/14 72/115/14 78/127/14
f 78/127/14 72/115/14 77/125/14
f 77/125/14 72/115/14 76/123/14
f 76/123/17 72/115/18 75/121/19
f 75/121/20 72/115/20 74/119/20
f 72/115/14 73/117/14 74/119/14
f 49/64/21 50/66/21 68/108/21 69/110/21
f 50/66/22 52/70/22 70/112/17 68/108/23
f 52/70/16 58/82/16 71/114/16 70/112/16
f 58/82/16 54/74/16 72/116/16 71/114/16
f 54/74/22 53/72/22 73/118/22 72/116/22
f 53/72/24 55/76/24 74/120/24 73/118/24
f 55/76/25 56/78/26 75/122/26 74/120/26
f 56/78/25 57/80/27 76/124/27 75/122/27
f 57/80/28 59/85/28 77/126/29 76/124/28
f 59/85/18 62/92/18 78/128/18 77/126/18
f 62/92/30 64/98/30 79/130/30 78/128/30
f 64/98/18 63/96/18 80/132/18 79/130/18
f 63/96/31 65/101/31 81/134/14 80/132/32
f 65/101/33 66/103/33 82/136/14 81/134/34
f 66/103/27 67/105/27 83/138/27 82/136/27
f 67/105/27 60/87/27 84/140/27 83/138/27
f 60/87/35 61/90/35 85/142/35 84/140/35
f 61/90/36 51/68/36 86/144/36 85/142/36
f 51/68/29 49/64/29 69/110/29 86/144/29
f 98/171/37 99/173/37 50/67/37 49/65/37
f 99/173/38 87/145/38 52/71/38 50/67/38
f 100/175/39 98/171/39 49/65/39 51/69/39
f 93/157/40 100/175/40 51/69/40 61/91/40
f 101/177/41 88/147/41 53/73/41 54/75/41
f 88/147/42 89/149/42 55/77/42 53/73/42
f 89/149/43 90/151/43 56/79/43 55/77/43
f 90/151/44 91/153/44 57/81/44 56/79/44
f 91/153/45 96/167/45 59/86/45 57/81/45
f 87/145/46 92/155/46 58/83/46 52/71/46
f 93/157/47 61/91/47 60/88/47
f 103/183/48 97/169/48 66/104/48 65/102/48
f 97/169/49 93/158/49 67/106/49 66/104/49
f 93/158/50 60/89/50 67/106/50
f 94/161/51 102/180/51 64/99/51 62/93/51
f 119/215/52 120/217/52 118/213/52
f 104/185/53 106/189/53 105/187/53
f 106/189/53 107/191/53 105/187/53
f 117/211/53 118/213/53 116/209/53
f 116/209/52 118/213/52 115/207/52
f 118/213/52 120/217/52 115/207/52
f 115/207/53 120/217/53 114/205/53
f 120/217/53 105/187/53 114/205/53
f 105/187/52 107/191/52 114/205/52
f 114/205/53 107/191/53 113/203/53
f 107/191/52 108/193/52 113/203/52
f 108/193/52 109/195/54 113/203/52
f 109/195/55 110/197/56 113/203/57
f 110/197/58 111/199/59 113/203/60
f 111/199/59 112/201/53 113/203/53
f 103/184/52 95/165/52 104/186/52 105/188/52
f 95/165/53 102/181/53 106/190/53 104/186/53
f 102/181/53 94/162/53 107/192/53 106/190/53
f 94/162/53 96/168/53 108/194/53 107/192/53
f 96/168/53 91/154/61 109/196/55 108/194/53
f 91/154/62 90/152/63 110/198/64 109/196/55
f 90/152/65 89/150/66 111/200/59 110/198/58
f 89/150/67 88/148/68 112/202/68 111/200/59
f 88/148/53 101/178/53 113/204/53 112/202/53
f 101/178/53 92/156/53 114/206/53 113/204/53
f 92/156/53 87/146/53 115/208/53 114/206/53
f 87/146/53 99/174/53 116/210/53 115/208/53
f 99/174/53 98/172/53 117/212/53 116/210/53
f 98/172/53 100/176/53 118/214/53 117/212/53
f 100/176/68 93/159/68 119/216/68 118/214/68
f 93/159/53 97/170/53 120/218/53 119/216/53
f 97/170/53 103/184/53 105/188/53 120/218/53
f 121/219/69 122/220/69 124/222/69 123/221/69
f 125/223/69 126/224/69 128/226/69 127/225/69
f 129/227/69 130/228/69 132/230/69 131/229/69
f 133/231/69 134/232/69 136/234/69 135/233/69
f 137/235/69 138/236/69 140/238/69 139/237/69
f 141/239/69 142/240/69 144/242/69 143/241/69
f 145/243/69 146/244/69 148/246/69 147/245/69
f 149/247/69 150/248/69 152/250/69 151/249/69
f 153/251/70 154/253/70 162/265/70 161/262/70
f 154/253/71 155/254/71 163/267/71 162/265/71
f 155/254/72 156/255/72 164/270/72 163/268/72
f 156/255/73 157/256/73 165/272/73 164/270/73
f 157/257/74 158/258/74 166/275/74 165/273/74
f 158/258/75 159/259/75 167/277/75 166/275/75
f 159/260/76 160/261/76 168/280/76 167/278/76
f 160/261/77 153/252/77 161/263/77 168/280/77
f 162/266/69 163/269/69 161/264/69
f 163/269/69 164/271/69 161/264/69
f 164/271/69 165/274/69 161/264/69
f 165/274/69 166/276/69 161/264/69
f 166/276/69 167/279/69 161/264/69
f 167/279/69 168/281/69 161/264/69
f 169/282/78 170/283/78 172/285/78 171/284/78
f 173/286/79 174/287/79 176/289/79 175/288/79
f 177/290/78 178/291/78 180/293/78 179/292/78
f 181/294/78 182/295/78 184/297/78 183/296/78
f 185/298/79 186/299/79 188/301/79 187/300/79
f 189/302/79 190/303/79 192/305/79 191/304/79
f 193/306/78 194/307/78 196/309/78 195/308/78
f 197/310/78 198/311/78 200/313/78 199/312/78
f 201/314/80 202/316/80 210/328/80 209/325/80
f 202/316/81 203/317/81 211/330/81 210/328/81
f 203/317/82 204/318/82 212/333/82 211/331/82
f 204/318/83 205/319/83 213/335/83 212/333/83
f 205/320/84 206/321/84 214/338/84 213/336/84
f 206/321/85 207/322/85 215/340/85 214/338/85
f 207/323/86 208/324/86 216/343/86 215/341/86
f 208/324/87 201/315/87 209/326/87 216/343/87
f 210/329/78 211/332/78 209/327/78
f 211/332/78 212/334/78 209/327/78
f 212/334/78 213/337/78 209/327/78
f 213/337/78 214/339/78 209/327/78
f 214/339/78 215/342/78 209/327/78
f 215/342/78 216/344/78 209/327/78
