# Blender 3.3.1
# www.blender.org
mtllib wineglass_002.mtl
o wineglass_002
v 0.019699 -0.001420 -0.019699
v 0.000000 -0.001420 -0.027858
v -0.019698 -0.001420 -0.019699
v -0.027858 -0.001420 -0.000000
v -0.019698 -0.001420 0.019698
v 0.000000 -0.001420 0.027858
v 0.019699 -0.001420 0.019698
v 0.027858 -0.001420 -0.000000
v 0.006291 0.004647 -0.006961
v 0.000000 0.004647 -0.009845
v -0.006291 0.004647 -0.006961
v -0.008897 0.004647 -0.000000
v -0.006291 0.004647 0.006961
v 0.000000 0.004647 0.009844
v 0.006291 0.004647 0.006961
v 0.008897 0.004647 -0.000000
v 0.003194 0.017280 -0.001464
v -0.001323 0.017280 -0.003535
v -0.003195 0.017280 0.001463
v 0.001323 0.017280 0.003535
v -0.004107 0.084599 0.001701
v 0.001701 0.084599 0.004107
v -0.001701 0.084599 -0.004107
v 0.004107 0.084599 -0.001701
v -0.008573 0.100122 0.003551
v 0.003551 0.100122 0.008572
v -0.003551 0.100122 -0.008573
v 0.008573 0.100122 -0.003551
v 0.000000 0.114790 0.024349
v -0.017218 0.114790 0.017217
v -0.024349 0.114790 -0.000000
v -0.017218 0.114790 -0.017218
v 0.000000 0.114790 -0.024350
v 0.017217 0.114790 -0.017218
v 0.024349 0.114790 -0.000000
v 0.017217 0.114790 0.017217
v 0.000000 0.139831 0.051413
v -0.036355 0.139831 0.036354
v -0.051413 0.139831 -0.000000
v -0.036355 0.139831 -0.036355
v 0.000000 0.139831 -0.051413
v 0.036355 0.139831 -0.036355
v 0.051413 0.139831 -0.000000
v 0.036355 0.139831 0.036354
v 0.000000 0.139831 0.048754
v -0.034475 0.139831 0.034474
v -0.048755 0.139831 -0.000000
v -0.034475 0.139831 -0.034474
v 0.000000 0.139831 -0.048755
v 0.034474 0.139831 -0.034474
v 0.048754 0.139831 -0.000000
v 0.034474 0.139831 0.034474
v 0.000000 0.130494 0.037821
v -0.026744 0.130494 0.026743
v -0.037821 0.130494 -0.000000
v -0.026744 0.130494 -0.026744
v 0.000000 0.130494 -0.037822
v 0.026744 0.130494 -0.026744
v 0.037821 0.130494 -0.000000
v 0.026744 0.130494 0.026743
v 0.000000 0.130089 0.040884
v 0.028910 0.130089 0.028909
v 0.040884 0.130089 -0.000000
v 0.028910 0.130089 -0.028910
v 0.000000 0.130089 -0.040884
v -0.028910 0.130089 -0.028910
v -0.040884 0.130089 -0.000000
v -0.028910 0.130089 0.028909
vn 0.1330 0.9404 -0.3131
vn -0.1330 0.9404 -0.3131
vn -0.3054 0.9442 -0.1233
vn -0.3055 0.9442 0.1233
vn -0.1330 0.9404 0.3131
vn 0.1330 0.9404 0.3131
vn 0.3054 0.9442 0.1233
vn 0.3054 0.9442 -0.1233
vn -0.0000 -1.0000 -0.0000
vn 0.3730 0.4456 -0.8138
vn -0.3855 0.3797 -0.8410
vn -0.8497 0.4204 -0.3181
vn -0.8748 0.3570 0.3275
vn -0.3730 0.4456 0.8138
vn 0.3854 0.3797 0.8410
vn 0.8497 0.4204 0.3181
vn 0.8748 0.3570 -0.3275
vn -0.3978 -0.0071 0.9175
vn -0.9298 -0.0098 -0.3680
vn 0.9298 -0.0098 0.3680
vn 0.3977 -0.0071 -0.9175
vn -0.3737 -0.2150 0.9023
vn -0.9023 -0.2150 -0.3737
vn 0.9023 -0.2150 0.3737
vn 0.3737 -0.2150 -0.9023
vn -0.2592 -0.7357 0.6257
vn -0.6864 -0.6694 0.2843
vn -0.6257 -0.7357 -0.2592
vn -0.2843 -0.6694 -0.6863
vn 0.2592 -0.7357 -0.6257
vn 0.6864 -0.6694 -0.2843
vn 0.6257 -0.7357 0.2592
vn 0.2843 -0.6694 0.6863
vn -0.2708 -0.7066 0.6538
vn -0.6538 -0.7066 0.2708
vn -0.6538 -0.7066 -0.2708
vn -0.2708 -0.7066 -0.6538
vn 0.2708 -0.7066 -0.6538
vn 0.6538 -0.7066 -0.2708
vn 0.6538 -0.7066 0.2708
vn 0.2708 -0.7066 0.6538
vn -0.0000 1.0000 -0.0000
vn 0.2598 0.7343 -0.6271
vn 0.6271 0.7343 -0.2598
vn 0.6271 0.7343 0.2598
vn 0.2598 0.7343 0.6271
vn -0.2598 0.7343 0.6271
vn -0.6271 0.7343 0.2598
vn -0.6271 0.7343 -0.2598
vn -0.2598 0.7343 -0.6271
vt 0.962561 0.129853
vt 0.962984 0.129626
vt 0.962821 0.129745
vt 0.963244 0.129734
vt 0.963080 0.129853
vt 0.963503 0.129626
vt 0.963188 0.130112
vt 0.963611 0.129366
vt 0.963080 0.130372
vt 0.963503 0.129107
vt 0.962821 0.130480
vt 0.963244 0.128999
vt 0.962561 0.130372
vt 0.962984 0.129107
vt 0.962453 0.130112
vt 0.962876 0.129366
vt 0.962696 0.129988
vt 0.961641 0.131481
vt 0.962821 0.129937
vt 0.962945 0.129988
vt 0.962157 0.131481
vt 0.962996 0.130112
vt 0.962032 0.131481
vt 0.961908 0.131481
vt 0.962945 0.130237
vt 0.962821 0.130288
vt 0.962696 0.130237
vt 0.961890 0.131481
vt 0.962645 0.130112
vt 0.961766 0.131481
vt 0.962787 0.130099
vt 0.961752 0.131361
vt 0.960920 0.129771
vt 0.962834 0.130079
vt 0.962066 0.131361
vt 0.960967 0.129771
vt 0.962854 0.130126
vt 0.960781 0.130587
vt 0.962019 0.131361
vt 0.962807 0.130146
vt 0.960734 0.130587
vt 0.961799 0.131361
vt 0.960793 0.129941
vt 0.962014 0.130715
vt 0.960729 0.129941
vt 0.961810 0.130715
vt 0.962077 0.130715
vt 0.960972 0.130417
vt 0.961747 0.130715
vt 0.960908 0.130417
vt 0.960842 0.129771
vt 0.961994 0.130545
vt 0.149445 0.231463
vt 0.960709 0.129771
vt 0.961859 0.130545
vt 0.149445 0.231326
vt 0.151109 0.232898
vt 0.962126 0.130545
vt 0.960992 0.130587
vt 0.149445 0.231795
vt 0.151560 0.233409
vt 0.961727 0.130545
vt 0.960859 0.130587
vt 0.151560 0.233546
vt 0.149445 0.231658
vt 0.151541 0.232995
vt 0.149847 0.230894
vt 0.149847 0.231089
vt 0.149847 0.231560
vt 0.149847 0.232032
vt 0.151961 0.232977
vt 0.149847 0.232227
vt 0.149847 0.232032
vt 0.151961 0.233172
vt 0.149847 0.231560
vt 0.151961 0.233644
vt 0.151346 0.232524
vt 0.149847 0.231089
vt 0.961362 0.129758
vt 0.962855 0.129352
vt 0.961602 0.129758
vt 0.963018 0.130491
vt 0.962755 0.129111
vt 0.963259 0.130491
vt 0.962515 0.129012
vt 0.963500 0.130491
vt 0.962324 0.130480
vt 0.962274 0.129111
vt 0.962084 0.130480
vt 0.962174 0.129352
vt 0.961843 0.130480
vt 0.962291 0.130491
vt 0.962274 0.129593
vt 0.962532 0.130491
vt 0.962515 0.129692
vt 0.962772 0.130491
vt 0.961121 0.129758
vt 0.962755 0.129593
vt 0.962838 0.129352
vt 0.960483 0.133594
vt 0.963245 0.133594
vt 0.962743 0.129124
vt 0.963245 0.133594
vt 0.960483 0.133594
vt 0.962515 0.129029
vt 0.963245 0.133594
vt 0.960483 0.133594
vt 0.962287 0.129124
vt 0.963245 0.133594
vt 0.960483 0.133594
vt 0.962192 0.129352
vt 0.963245 0.133594
vt 0.960483 0.133594
vt 0.962287 0.129580
vt 0.963245 0.133594
vt 0.960483 0.133594
vt 0.962515 0.129675
vt 0.963245 0.133594
vt 0.960483 0.133594
vt 0.962743 0.129580
vt 0.963245 0.133594
vt 0.960483 0.133594
vt 0.960483 0.130832
vt 0.963245 0.130832
vt 0.150284 0.231477
vt 0.963245 0.130832
vt 0.960483 0.130832
vt 0.150588 0.232209
vt 0.963245 0.130832
vt 0.960483 0.130832
vt 0.151320 0.232512
vt 0.963245 0.130832
vt 0.960483 0.130832
vt 0.152052 0.232209
vt 0.963245 0.130832
vt 0.960483 0.130832
vt 0.152356 0.231477
vt 0.963245 0.130832
vt 0.960483 0.130832
vt 0.152052 0.230744
vt 0.963245 0.130832
vt 0.960483 0.130832
vt 0.151320 0.230441
vt 0.963245 0.130832
vt 0.960483 0.130832
vt 0.150588 0.230744
vt 0.961661 0.130709
vt 0.150266 0.230441
vt 0.962522 0.131626
vt 0.961513 0.130589
vt 0.150266 0.230769
vt 0.962375 0.131506
vt 0.150266 0.231560
vt 0.152380 0.233644
vt 0.961954 0.131030
vt 0.962228 0.131387
vt 0.152380 0.232852
vt 0.962102 0.131150
vt 0.152380 0.232524
vt 0.150266 0.232680
vt 0.962967 0.131556
vt 0.962249 0.131269
vt 0.150266 0.232352
vt 0.962820 0.131437
vt 0.150266 0.231560
vt 0.961808 0.130828
vt 0.962673 0.131317
vt 0.150266 0.230769
s 1
usemtl Material
f 1/1/1 2/3/1 10/19/1 9/17/1
f 2/3/2 3/5/2 11/20/2 10/19/2
f 3/5/3 4/7/3 12/22/3 11/20/3
f 4/7/4 5/9/4 13/25/4 12/22/4
f 5/9/5 6/11/5 14/26/5 13/25/5
f 6/11/6 7/13/6 15/27/6 14/26/6
f 7/13/7 8/15/7 16/29/7 15/27/7
f 8/15/8 1/1/8 9/17/8 16/29/8
f 2/4/9 1/2/9 7/14/9
f 3/6/9 2/4/9 7/14/9
f 4/8/9 3/6/9 7/14/9
f 5/10/9 4/8/9 7/14/9
f 6/12/9 5/10/9 7/14/9
f 1/2/9 8/16/9 7/14/9
f 9/17/10 10/19/10 18/34/10 17/31/10
f 10/19/11 11/20/11 18/34/11
f 11/21/12 12/23/12 19/39/12 18/35/12
f 12/23/13 13/24/13 19/39/13
f 13/25/14 14/26/14 20/40/14 19/37/14
f 14/26/15 15/27/15 20/40/15
f 15/28/16 16/30/16 17/32/16 20/42/16
f 16/30/17 9/18/17 17/32/17
f 19/38/18 20/41/18 22/45/18 21/43/18
f 18/35/19 19/39/19 21/44/19 23/47/19
f 20/42/20 17/32/20 24/49/20 22/46/20
f 17/33/21 18/36/21 23/48/21 24/50/21
f 21/43/22 22/45/22 26/54/22 25/51/22
f 23/47/23 21/44/23 25/52/23 27/58/23
f 22/46/24 24/49/24 28/62/24 26/55/24
f 24/50/25 23/48/25 27/59/25 28/63/25
f 30/68/26 25/53/26 26/56/26 29/67/26
f 31/69/27 25/53/27 30/68/27
f 32/70/28 27/60/28 25/53/28 31/69/28
f 33/72/29 27/60/29 32/70/29
f 34/74/30 28/64/30 27/61/30 33/71/30
f 35/75/31 28/65/31 34/73/31
f 36/78/32 26/56/32 28/65/32 35/75/32
f 29/66/33 26/57/33 36/77/33
f 68/166/34 61/147/34 37/79/34 38/81/34
f 67/164/35 68/167/35 38/82/35 39/84/35
f 66/161/36 67/164/36 39/84/36 40/86/36
f 65/158/37 66/162/37 40/87/37 41/89/37
f 64/155/38 65/158/38 41/89/38 42/91/38
f 63/152/39 64/156/39 42/92/39 43/94/39
f 62/149/40 63/152/40 43/94/40 44/96/40
f 37/79/41 61/147/41 62/150/41 44/97/41
f 38/83/42 37/80/42 45/99/42 46/102/42
f 39/85/42 38/83/42 46/102/42 47/105/42
f 40/88/42 39/85/42 47/105/42 48/108/42
f 41/90/42 40/88/42 48/108/42 49/111/42
f 42/93/42 41/90/42 49/111/42 50/114/42
f 43/95/42 42/93/42 50/114/42 51/117/42
f 44/98/42 43/95/42 51/117/42 52/120/42
f 37/80/42 44/98/42 52/120/42 45/99/42
f 46/103/43 45/100/43 53/123/43 54/126/43
f 47/106/44 46/104/44 54/127/44 55/129/44
f 48/109/45 47/107/45 55/130/45 56/132/45
f 49/112/46 48/110/46 56/133/46 57/135/46
f 50/115/47 49/113/47 57/136/47 58/138/47
f 51/118/48 50/116/48 58/139/48 59/141/48
f 52/121/49 51/119/49 59/142/49 60/144/49
f 45/101/50 52/122/50 60/145/50 53/124/50
f 54/128/42 53/125/42 60/146/42 59/143/42 58/140/42 57/137/42 56/134/42 55/131/42
f 62/151/41 61/148/41 29/67/41 36/78/41
f 36/78/40 35/75/40 63/153/40 62/151/40
f 35/76/39 34/74/39 64/157/39 63/154/39
f 34/74/38 33/71/38 65/159/38 64/157/38
f 33/72/37 32/70/37 66/163/37 65/160/37
f 32/70/36 31/69/36 67/165/36 66/163/36
f 31/69/35 30/68/35 68/168/35 67/165/35
f 30/68/34 29/67/34 61/148/34 68/168/34
