# Blender 3.3.1
# www.blender.org
mtllib yogurt_001.mtl
o yogurt_001
v -0.019917 0.000066 0.010356
v -0.000108 0.000066 0.021793
v 0.019701 0.000066 0.010356
v 0.019701 0.000066 -0.012517
v -0.000108 0.000066 -0.023954
v -0.019917 0.000066 -0.012517
v -0.012307 0.092719 0.005962
v -0.000108 0.092719 0.013006
v 0.012092 0.092719 0.005962
v 0.012092 0.092719 -0.008124
v -0.000108 0.092719 -0.015167
v -0.012307 0.092719 -0.008124
v -0.021477 0.018214 0.011257
v -0.000108 0.018214 0.023594
v 0.021261 0.018214 0.011257
v 0.021261 0.018214 -0.013418
v -0.000108 0.018214 -0.025755
v -0.021477 0.018214 -0.013418
v -0.018269 0.051205 0.009405
v -0.018269 0.051205 -0.011566
v -0.000108 0.051205 -0.022051
v 0.018053 0.051205 -0.011566
v 0.018053 0.051205 0.009405
v -0.000108 0.051205 0.019890
v -0.021477 0.068963 0.011257
v -0.021477 0.068963 -0.013418
v -0.000108 0.068963 -0.025755
v 0.021261 0.068963 -0.013418
v 0.021261 0.068963 0.011257
v -0.000108 0.068963 0.023594
v -0.012965 0.109464 0.006343
v -0.000108 0.109464 0.013766
v 0.012750 0.109464 0.006343
v 0.012750 0.109464 -0.008504
v -0.000108 0.109464 -0.015927
v -0.012965 0.109464 -0.008504
v -0.013979 0.095376 0.006928
v -0.000108 0.095376 0.014937
v 0.013764 0.095376 0.006928
v 0.013764 0.095376 -0.009089
v -0.000108 0.095376 -0.017098
v -0.013979 0.095376 -0.009089
v -0.012307 0.096461 0.005962
v -0.000108 0.096461 0.013006
v 0.012092 0.096461 0.005962
v 0.012092 0.096461 -0.008124
v -0.000108 0.096461 -0.015167
v -0.012307 0.096461 -0.008124
v -0.020016 0.033239 -0.012574
v -0.020217 0.031170 0.010529
v -0.000108 0.021834 0.023188
v 0.020817 0.022784 0.011000
v 0.020428 0.026783 -0.012937
v -0.000108 0.024029 -0.025103
v -0.020542 0.063790 -0.012879
v -0.000108 0.075442 0.020706
v 0.019669 0.073088 0.010338
v 0.019952 0.072355 -0.012662
v -0.000108 0.075811 -0.022703
v -0.013845 0.068963 -0.017825
v 0.015293 0.055126 0.011817
v -0.000108 0.055157 0.020508
v 0.017084 0.065042 0.012851
v -0.000108 0.065010 0.022976
v -0.015508 0.055126 0.011817
v -0.017299 0.065042 0.012851
vn -0.4977 0.0968 0.8620
vn 0.4977 0.0968 0.8620
vn 0.9953 0.0968 -0.0000
vn 0.4976 0.0968 -0.8620
vn -0.4977 0.0968 -0.8620
vn -0.9953 0.0968 -0.0000
vn -0.0000 -1.0000 -0.0000
vn -0.0000 1.0000 -0.0000
vn -0.4982 -0.0857 0.8628
vn 0.4982 -0.0857 0.8628
vn 0.9963 -0.0857 -0.0000
vn 0.4982 -0.0857 -0.8628
vn -0.4982 -0.0857 -0.8628
vn -0.9963 -0.0857 -0.0000
vn -0.9841 -0.1778 -0.0000
vn -0.4921 -0.1777 -0.8522
vn 0.4920 -0.1778 -0.8522
vn 0.9841 -0.1778 -0.0000
vn 0.4904 -0.1949 0.8494
vn -0.4904 -0.1949 0.8494
vn -0.9329 0.3601 -0.0000
vn -0.4665 0.3601 -0.8079
vn 0.4665 0.3601 -0.8079
vn 0.9329 0.3601 -0.0000
vn 0.4664 0.3601 0.8079
vn -0.4665 0.3601 0.8079
vn -0.4987 0.0718 0.8638
vn 0.4987 0.0718 0.8638
vn 0.9974 0.0718 -0.0000
vn 0.4987 0.0718 -0.8638
vn -0.4987 0.0718 -0.8638
vn -0.9974 0.0718 -0.0000
vn -0.5000 -0.0000 0.8660
vn 0.5000 -0.0000 0.8660
vn 1.0000 -0.0000 -0.0000
vn 0.5000 -0.0000 -0.8660
vn -0.5000 -0.0000 -0.8660
vn -1.0000 -0.0000 -0.0000
vn -0.4976 0.0968 0.8620
vn 0.4976 0.0968 0.8620
vn 0.4977 0.0968 -0.8620
vn -0.4664 0.3601 0.8079
vn -0.4664 0.3601 -0.8079
vn -0.4920 -0.1778 -0.8522
vn 0.4898 -0.1582 0.8574
vn 0.4920 -0.1778 0.8522
vn 0.4971 -0.1580 0.8532
vn -0.4898 -0.1582 0.8574
vn -0.4971 -0.1580 0.8532
vn -0.4920 -0.1778 0.8522
vt 0.336016 0.417147
vt 0.337087 0.417309
vt 0.335716 0.418600
vt 0.336016 0.416841
vt 0.337364 0.417309
vt 0.337043 0.418600
vt 0.335776 0.416688
vt 0.336802 0.418600
vt 0.335535 0.416841
vt 0.336518 0.418600
vt 0.335535 0.417147
vt 0.336197 0.418600
vt 0.335776 0.417301
vt 0.335956 0.418600
vt 0.336911 0.119019
vt 0.334790 0.116398
vt 0.852891 0.113818
vt 0.852575 0.113535
vt 0.335098 0.117001
vt 0.336021 0.116398
vt 0.852932 0.113818
vt 0.852846 0.113535
vt 0.335098 0.118067
vt 0.852811 0.113535
vt 0.336389 0.114736
vt 0.335098 0.119133
vt 0.852731 0.113535
vt 0.336911 0.116887
vt 0.336389 0.115967
vt 0.852645 0.113535
vt 0.336911 0.117953
vt 0.852610 0.113535
vt 0.335697 0.418357
vt 0.337076 0.417552
vt 0.337375 0.417552
vt 0.337062 0.418357
vt 0.336802 0.418357
vt 0.336529 0.418357
vt 0.336229 0.418357
vt 0.335956 0.418357
vt 0.853191 0.115367
vt 0.853142 0.115317
vt 0.853158 0.115317
vt 0.853154 0.115363
vt 0.853170 0.115363
vt 0.853209 0.115367
vt 0.338986 0.119820
vt 0.334327 0.114322
vt 0.853190 0.115383
vt 0.338986 0.117953
vt 0.853161 0.115302
vt 0.853151 0.115349
vt 0.853170 0.115347
vt 0.853211 0.115383
vt 0.336027 0.417193
vt 0.337259 0.417301
vt 0.336906 0.417301
vt 0.336027 0.416979
vt 0.337259 0.417090
vt 0.336723 0.416933
vt 0.336196 0.416871
vt 0.336723 0.417115
vt 0.336364 0.416979
vt 0.336723 0.417301
vt 0.337204 0.416863
vt 0.336364 0.417193
vt 0.337204 0.417078
vt 0.336906 0.416929
vt 0.336196 0.417301
vt 0.336906 0.417115
vt 0.337077 0.417301
vt 0.336712 0.417193
vt 0.337088 0.417086
vt 0.336894 0.416929
vt 0.336712 0.416979
vt 0.336894 0.417115
vt 0.336544 0.416871
vt 0.336894 0.417301
vt 0.337375 0.416863
vt 0.336375 0.416979
vt 0.337375 0.417078
vt 0.337077 0.416929
vt 0.336375 0.417193
vt 0.337077 0.417115
vt 0.336544 0.417301
vt 0.852891 0.113830
vt 0.852575 0.113523
vt 0.852932 0.113830
vt 0.852846 0.113523
vt 0.852811 0.113523
vt 0.852731 0.113523
vt 0.852645 0.113523
vt 0.852610 0.113523
vt 0.335956 0.418156
vt 0.853142 0.115333
vt 0.853125 0.115335
vt 0.335712 0.418184
vt 0.337085 0.417726
vt 0.853189 0.115388
vt 0.337373 0.417600
vt 0.337057 0.418309
vt 0.853170 0.115387
vt 0.336802 0.418296
vt 0.853151 0.115386
vt 0.336523 0.418242
vt 0.336233 0.418279
vt 0.853161 0.115341
vt 0.339438 0.117953
vt 0.853142 0.115306
vt 0.336607 0.116419
vt 0.336357 0.114888
vt 0.853187 0.115341
vt 0.336813 0.118067
vt 0.853170 0.115344
vt 0.338168 0.114339
vt 0.336877 0.119820
vt 0.853150 0.115346
vt 0.338388 0.116317
vt 0.337866 0.116296
vt 0.853159 0.115296
vt 0.338986 0.117286
vt 0.853149 0.115302
vt 0.318162 0.695053
vt 0.853170 0.115363
vt 0.318160 0.694204
vt 0.318172 0.694010
vt 0.853209 0.115367
vt 0.317609 0.695053
vt 0.853170 0.115347
vt 0.317611 0.694085
vt 0.318721 0.693941
vt 0.853211 0.115383
vt 0.318170 0.694995
vt 0.853191 0.115367
vt 0.318723 0.695053
vt 0.853190 0.115383
s 1
usemtl Material
f 50/96/1 51/99/1 24/46/1 19/41/1
f 51/99/2 52/102/2 23/45/2 24/46/2
f 52/102/3 53/104/3 22/44/3 23/45/3
f 53/104/4 54/107/4 21/43/4 22/44/4
f 17/39/5 18/40/5 49/94/5 54/106/5
f 49/95/6 50/96/6 19/41/6 20/42/6
f 3/7/7 2/4/7 1/1/7
f 4/9/7 3/7/7 1/1/7
f 5/11/7 4/9/7 1/1/7
f 6/13/7 5/11/7 1/1/7
f 33/61/8 34/63/8 32/58/8
f 34/63/8 35/66/8 32/58/8
f 35/66/8 36/69/8 32/58/8
f 36/69/8 31/55/8 32/58/8
f 1/2/9 2/5/9 14/35/9 13/34/9
f 2/6/10 3/8/10 15/37/10 14/36/10
f 3/8/11 4/10/11 16/38/11 15/37/11
f 4/10/12 5/12/12 17/39/12 16/38/12
f 5/12/13 6/14/13 18/40/13 17/39/13
f 6/14/14 1/3/14 13/33/14 18/40/14
f 55/108/15 25/47/15 26/50/15
f 60/121/16 55/108/16 26/50/16
f 22/44/17 21/43/17 27/51/17 28/52/17
f 23/45/18 22/44/18 28/52/18 29/53/18
f 62/125/19 61/123/19 63/128/19 64/130/19
f 65/133/20 62/126/20 64/131/20 66/135/20
f 26/50/21 25/47/21 7/15/21 12/31/21
f 59/118/22 60/121/22 26/50/22 12/31/22 11/28/22
f 58/115/23 59/119/23 11/29/23 10/25/23
f 57/113/24 58/116/24 10/26/24 9/23/24
f 56/110/25 57/113/25 9/23/25 8/19/25
f 25/48/26 56/111/26 8/20/26 7/16/26
f 37/71/27 38/73/27 32/59/27 31/56/27
f 38/74/28 39/76/28 33/62/28 32/60/28
f 39/76/29 40/78/29 34/64/29 33/62/29
f 40/79/30 41/81/30 35/67/30 34/65/30
f 41/82/31 42/84/31 36/70/31 35/68/31
f 42/84/32 37/71/32 31/57/32 36/70/32
f 38/75/7 37/72/7 42/85/7 41/83/7 40/80/7 39/77/7
f 7/17/33 8/21/33 44/88/33 43/86/33
f 8/22/34 9/24/34 45/90/34 44/89/34
f 9/24/35 10/27/35 46/91/35 45/90/35
f 10/27/36 11/30/36 47/92/36 46/91/36
f 11/30/37 12/32/37 48/93/37 47/92/37
f 12/32/38 7/18/38 43/87/38 48/93/38
f 18/40/6 13/33/6 50/97/6 49/94/6
f 13/34/39 14/35/39 51/100/39 50/98/39
f 14/36/40 15/37/40 52/103/40 51/101/40
f 15/37/3 16/38/3 53/105/3 52/103/3
f 16/38/41 17/39/41 54/106/41 53/105/41
f 54/107/5 49/95/5 20/42/5 21/43/5
f 20/42/15 19/41/15 25/49/15 55/109/15
f 25/49/42 30/54/42 56/112/42
f 30/54/25 29/53/25 57/114/25 56/112/25
f 29/53/24 28/52/24 58/117/24 57/114/24
f 28/52/23 27/51/23 59/120/23 58/117/23
f 27/51/43 60/122/43 59/120/43
f 21/43/44 20/42/44 55/109/44 60/122/44 27/51/44
f 24/46/45 23/45/45 61/124/45 62/127/45
f 23/45/46 29/53/46 63/129/46 61/124/46
f 29/53/47 30/54/47 64/132/47 63/129/47
f 19/41/48 24/46/48 62/127/48 65/134/48
f 30/54/49 25/49/49 66/136/49 64/132/49
f 25/49/50 19/41/50 65/134/50 66/136/50
