# Blender 3.6.4
# www.blender.org
mtllib sin_nombre.mtl
o 3d-model
v -1.527500 0.000000 0.976800
v 1.456200 0.000000 0.976800
v 1.456200 8.102500 0.976799
v -1.527500 8.102500 0.976799
v 1.456200 -0.000000 -0.976800
v 1.456200 8.102500 -0.976801
v -1.527500 -0.000000 -0.976800
v -1.527500 8.102500 -0.976801
v 2.294800 0.000000 0.976800
v 5.276500 0.000000 0.976800
v 5.387000 3.905300 0.976800
v 2.294800 8.100600 0.976799
v 5.387000 8.100600 0.976799
v 5.276500 -0.000000 -0.976800
v 2.294800 -0.000000 -0.976800
v 2.294800 8.100600 -0.976801
v 5.387000 3.905300 -0.976800
v 5.387000 8.100600 -0.976801
v -2.342400 -0.000000 -0.976800
v -5.387000 -0.000000 -0.976800
v -5.387000 8.036000 -0.976801
v -2.506200 8.185200 -0.976801
v -2.506200 8.185200 0.976799
v -2.342400 0.000000 0.976800
v -5.387000 8.036000 0.976799
v -5.387000 0.000000 0.976800
vn -0.0000 -0.0000 1.0000
vn 1.0000 -0.0000 -0.0000
vn -0.0000 -0.0000 -1.0000
vn -1.0000 -0.0000 -0.0000
vn -0.0000 -1.0000 -0.0000
vn -0.0000 1.0000 -0.0000
vn 0.9996 -0.0288 -0.0000
vn 0.9998 0.0203 -0.0000
vn -0.0506 0.9987 -0.0000
vt 0.272100 0.046900
vt 0.712500 0.046900
vt 0.712500 0.944000
vt 0.272100 0.944000
vt -0.618800 0.336000
vt -0.618800 0.584700
vt -1.059200 0.584700
vt -1.059200 0.336000
vt 0.280100 0.076700
vt 0.682500 0.076700
vt 0.697400 0.487100
vt 0.280100 0.928000
vt 0.697400 0.928000
vt 0.674700 0.069500
vt 0.256800 0.069500
vt 0.256800 0.907800
vt 0.652200 0.923400
s 1
usemtl a00210267
f 1/1/1 2/2/1 3/3/1 4/4/1
f 3/3/2 2/2/2 5/2/2 6/3/2
f 6/3/3 5/2/3 7/1/3 8/4/3
f 7/1/4 1/1/4 4/4/4 8/4/4
f 1/5/5 7/6/5 5/7/5 2/8/5
f 6/3/6 8/4/6 4/4/6 3/3/6
usemtl a00210189
f 9/9/1 10/10/1 11/11/1 12/12/1
f 12/12/1 11/11/1 13/13/1
f 14/10/3 15/9/3 16/12/3 17/11/3
f 17/11/3 16/12/3 18/13/3
f 17/11/7 11/11/7 10/10/7 14/10/7
f 16/12/6 12/12/6 13/13/6 18/13/6
f 9/9/5 15/9/5 14/10/5 10/10/5
f 9/9/4 12/12/4 16/12/4 15/9/4
f 13/13/2 11/11/2 17/11/2 18/13/2
usemtl a00210205
f 19/14/3 20/15/3 21/16/3 22/17/3
f 22/17/8 23/17/8 24/14/8 19/14/8
f 21/16/9 25/16/9 23/17/9 22/17/9
f 26/15/4 25/16/4 21/16/4 20/15/4
f 26/15/1 24/14/1 23/17/1 25/16/1
f 26/15/5 20/15/5 19/14/5 24/14/5
