# Blender v3.6.2 OBJ File: 'Congelados_Container.blend'
# www.blender.org
mtllib Congelados_Container.mtl
o Cube
v 1.000000 2.002249 -1.000000
v 1.000000 -2.002249 -1.000000
v 1.000000 2.002249 1.000000
v 1.000000 -2.002249 1.000000
v -1.000000 2.002249 -1.000000
v -1.000000 -2.002249 -1.000000
v -1.000000 2.002249 1.000000
v -1.000000 -2.002249 1.000000
v -1.000000 -2.002249 1.000000
v -1.000000 2.002249 1.000000
v 1.000000 2.002249 1.000000
v 1.000000 -2.002249 1.000000
v -1.000000 -2.002249 1.000000
v -1.000000 2.002249 1.000000
v 1.000000 2.002249 1.000000
v 1.000000 -2.002249 1.000000
v -0.842771 -1.845020 1.000000
v -0.842771 1.845020 1.000000
v 0.842771 1.845020 1.000000
v 0.842771 -1.845020 1.000000
v -1.000000 -2.002249 1.000000
v -1.000000 2.002249 1.000000
v 1.000000 2.002249 1.000000
v 1.000000 -2.002249 1.000000
v -0.842771 -1.845020 0.935822
v -0.842771 1.845020 0.935822
v 0.842771 1.845020 0.935822
v 0.842771 -1.845020 0.935822
vt 0.476737 0.750562
vt 0.226737 0.750562
vt 0.226737 0.500562
vt 0.476737 0.500562
vt 0.218715 0.500562
vt 0.218715 0.500562
vt 0.218715 0.500562
vt 0.218715 0.500562
vt 0.000000 0.500562
vt 0.000000 0.000000
vt 0.250000 0.000000
vt 0.250000 0.500562
vt 0.726737 0.750562
vt 0.476737 0.750562
vt 0.476737 0.500562
vt 0.726737 0.500562
vt 0.250000 0.500562
vt 0.250000 0.000000
vt 0.500000 0.000000
vt 0.500000 0.500562
vt 0.500000 0.500562
vt 0.500000 0.000000
vt 0.750000 0.000000
vt 0.750000 0.500562
vt 0.218715 0.500562
vt 0.218715 0.500562
vt 0.218715 0.500562
vt 0.218715 0.500562
vt 0.218715 0.500562
vt 0.218715 0.500562
vt 0.218715 0.500562
vt 0.218715 0.500562
vt 0.218715 0.500562
vt 0.218715 0.500562
vt 0.726737 0.711255
vt 0.726737 0.500562
vt 0.734760 0.500562
vt 0.734760 0.711255
vt 0.218715 0.500562
vt 0.218715 0.500562
vt 0.980346 0.480909
vt 0.980346 0.019654
vt 1.000000 0.000000
vt 1.000000 0.500562
vt 0.769654 0.019654
vt 0.769654 0.480909
vt 0.750000 0.500562
vt 0.750000 0.000000
vt 0.000000 0.961817
vt 0.000000 0.500562
vt 0.210693 0.500562
vt 0.210693 0.961817
vt 0.210693 0.961817
vt 0.210693 0.500562
vt 0.218715 0.500562
vt 0.218715 0.961817
vt 0.734760 0.711255
vt 0.734760 0.500562
vt 0.742782 0.500562
vt 0.742782 0.711255
vt 0.226737 0.500562
vt 0.226737 0.961817
vt 0.218715 0.961817
vt 0.218715 0.500562
vn 0.0000 1.0000 0.0000
vn 0.0000 0.0000 1.0000
vn -1.0000 0.0000 0.0000
vn 0.0000 -1.0000 0.0000
vn 1.0000 0.0000 0.0000
vn 0.0000 0.0000 -1.0000
usemtl Material
s off
f 1/1/1 5/2/1 7/3/1 3/4/1
f 4/5/2 3/6/2 11/7/2 12/8/2
f 8/9/3 7/10/3 5/11/3 6/12/3
f 6/13/4 2/14/4 4/15/4 8/16/4
f 2/17/5 1/18/5 3/19/5 4/20/5
f 6/21/6 5/22/6 1/23/6 2/24/6
f 9/25/2 12/8/2 16/26/2 13/27/2
f 7/28/2 8/29/2 9/25/2 10/30/2
f 8/29/2 4/5/2 12/8/2 9/25/2
f 3/6/2 7/28/2 10/30/2 11/7/2
f 15/31/2 14/32/2 22/33/2 23/34/2
f 12/8/2 11/7/2 15/31/2 16/26/2
f 11/7/2 10/30/2 14/32/2 15/31/2
f 10/30/2 9/25/2 13/27/2 14/32/2
f 17/35/1 20/36/1 28/37/1 25/38/1
f 14/32/2 13/27/2 21/39/2 22/33/2
f 13/27/2 16/26/2 24/40/2 21/39/2
f 16/26/2 15/31/2 23/34/2 24/40/2
f 17/41/2 18/42/2 22/43/2 21/44/2
f 19/45/2 20/46/2 24/47/2 23/48/2
f 18/42/2 19/45/2 23/48/2 22/43/2
f 20/46/2 17/41/2 21/44/2 24/47/2
f 28/49/2 27/50/2 26/51/2 25/52/2
f 20/53/3 19/54/3 27/55/3 28/56/3
f 19/57/4 18/58/4 26/59/4 27/60/4
f 18/61/5 17/62/5 25/63/5 26/64/5
